<svg id="Layer_2" data-name="Layer 2" xmlns="http://www.w3.org/2000/svg" viewBox="0 0 477.3 264.1"><defs><style>.cls-1,.cls-3{fill:none;stroke:#000;stroke-linecap:round;stroke-linejoin:round;}.cls-1{stroke-width:0.67px;}.cls-2{isolation:isolate;}.cls-3{stroke-width:0.33px;}.cls-4{fill:#fff;}</style></defs><title>OJ103614615</title><path id="path34" class="cls-1" d="M127.4,214.5c0-10.2,14.2-18.5,31.6-18.5s31.6,8.3,31.6,18.5S176.5,233,159,233s-31.6-8.2-31.6-18.5"/><path id="path48" class="cls-1" d="M267.9,56.7c0-14.5,17-26.3,38.1-26.3s38.1,11.8,38.1,26.3S327.1,83,306,83s-38.1-11.8-38.1-26.3"/><path id="path64" class="cls-1" d="M389.8,233c0-10.6,16.6-19.3,37-19.3s37,8.6,37,19.3-16.6,19.3-37,19.3-37-8.6-37-19.3"/><g class="cls-2"><path d="M402.8,229.7h-.7c-.2,0-.3.1-.4.1h-1a2.81,2.81,0,0,0-1.1.1.52.52,0,0,0-.2.4.9.9,0,0,1-.1.5c-.1.6-.2,1-.2,1.2h.1a3.22,3.22,0,0,0,.8-.1,3.44,3.44,0,0,1,.9-.1,5.76,5.76,0,0,1,1-.2c.4,0,.5.1.5.3a.37.37,0,0,1-.4.4,10.87,10.87,0,0,1-1.5.2c-.9.1-1.5.2-1.5.3s-.1.4-.2.8a3.44,3.44,0,0,0-.1.9h0q0,.15.3.3h.7l.8-.1a4.4,4.4,0,0,0,1-.2,3.22,3.22,0,0,1,.8-.1.37.37,0,0,1,.3.1c.1.1.2.2.2.3s0,.2-.1.2a3.73,3.73,0,0,1-1.2.2c-.4,0-1,.1-1.9.2a3.44,3.44,0,0,1-.9.1c-.3,0-.6,0-.6-.1s-.1-.2-.2-.4v-.1h0a.77.77,0,0,1,.1-.3,5,5,0,0,0,.3-1.2,9.32,9.32,0,0,0,.2-1.4.6.6,0,0,1,.1-.4,14.93,14.93,0,0,0,.2-1.7.31.31,0,0,0-.1-.2h0c0-.1,0-.1-.1-.2v-.1h0c0-.1,0-.1.1-.2a.31.31,0,0,1,.2-.1h.4a5.81,5.81,0,0,0,1-.1q.9-.15,2.1-.3h.3a.75.75,0,0,1,.5.1c.1.1.1.2.2.3s0,.2-.1.2S402.9,229.7,402.8,229.7Z"/><path d="M403.5,230.1v-.2a.37.37,0,0,1,.1-.3,5.53,5.53,0,0,1,.9-.1,8.08,8.08,0,0,0,1.6-.1,10.4,10.4,0,0,0,2.1-.3c.4,0,.7-.1,1-.1h.5c.2,0,.3,0,.3.1s.1.1.2.2a.35.35,0,0,0,.1.2c0,.2-.1.3-.2.3H409a4.48,4.48,0,0,0-1.1.1c-.4,0-.7.1-.7.2s-.1.7-.2,1.7-.2,1.8-.2,2.3a2.49,2.49,0,0,0,.1.8v.1a.37.37,0,0,1-.1.3c-.1.1-.2.2-.3.2a.52.52,0,0,1-.4-.2,2.53,2.53,0,0,1-.2-1.2,25.64,25.64,0,0,1,.4-3.7v-.2c0-.1-.1-.1-.2-.1a4.59,4.59,0,0,0-1,.1c-.5,0-.8.1-1.1.1S403.6,230.2,403.5,230.1Z"/><path d="M413.2,229.1v.5l.1.2.3.9c.1.3.2.6.3,1a13.77,13.77,0,0,0,.8,2,3.08,3.08,0,0,0,.8,1.2l.3.3c0,.1.1.1.1.2a.35.35,0,0,1-.4.4c-.4,0-.8-.6-1.4-1.8-.2-.5-.3-.7-.4-.7a4.4,4.4,0,0,0-.9.1c-.5.1-.9.2-1.3.3a1,1,0,0,1-.4.1c-.1,0-.1,0-.2-.1h-.1c-.1,0-.2.2-.4.6-.4.6-.6,1-.7,1.1s-.2.2-.3.2a.37.37,0,0,1-.3-.1c-.1-.1-.2-.2-.2-.3s.1-.2.2-.4.3-.5.6-1q.9-1.35,1.5-2.4a11.7,11.7,0,0,1,1.2-2.1c.2-.2.3-.3.4-.3S413.1,229,413.2,229.1Zm.3,3.5a12.25,12.25,0,0,1-.5-1.3c-.2-.7-.4-1.1-.4-1.2-.2.3-.4.8-.7,1.4l-.8,1.5a2,2,0,0,1,.5-.1.75.75,0,0,0,.5-.1C412.9,232.7,413.4,232.6,413.5,232.6Z"/><path d="M423.8,229.1v.5l.1.2.3.9c.1.3.2.6.3,1a13.77,13.77,0,0,0,.8,2,3.08,3.08,0,0,0,.8,1.2l.3.3c0,.1.1.1.1.2a.35.35,0,0,1-.4.4c-.4,0-.8-.6-1.4-1.8-.2-.5-.3-.7-.4-.7a4.4,4.4,0,0,0-.9.1c-.5.1-.9.2-1.3.3a1,1,0,0,1-.4.1c-.1,0-.1,0-.2-.1h-.1c-.1,0-.2.2-.4.6-.4.6-.6,1-.7,1.1s-.2.2-.3.2a.37.37,0,0,1-.3-.1c-.1-.1-.2-.2-.2-.3s.1-.2.2-.4.3-.5.6-1q.9-1.35,1.5-2.4a11.7,11.7,0,0,1,1.2-2.1c.2-.2.3-.3.4-.3S423.7,229,423.8,229.1Zm.3,3.5a12.25,12.25,0,0,1-.5-1.3c-.2-.7-.4-1.1-.4-1.2-.2.3-.4.8-.7,1.4l-.8,1.5a2,2,0,0,1,.5-.1.75.75,0,0,0,.5-.1C423.5,232.7,424,232.6,424.1,232.6Z"/><path d="M430.2,232c-.2,0-.3.1-.5.3a4.19,4.19,0,0,0-.8,1.3c-.5.9-.8,1.5-.9,1.6a.76.76,0,0,1-.4.2.47.47,0,0,1-.5-.5,1.76,1.76,0,0,1,.1-.6,12.74,12.74,0,0,0,.2-2.8.76.76,0,0,1,.1-.4c.1-.1.2-.2.3-.2s.3,0,.3.1a3.54,3.54,0,0,1,.1.6,10.53,10.53,0,0,1-.3,1.8,1.76,1.76,0,0,0-.1.6v.1s.2-.3.6-1a7.64,7.64,0,0,1,1-1.5,1.22,1.22,0,0,1,.9-.4.55.55,0,0,1,.6.4,2.83,2.83,0,0,1,.4,1.3c.1.7.2,1.2.2,1.4s.2.3.3.3a.37.37,0,0,0,.3-.1h.1a.22.22,0,0,1,.2.2.54.54,0,0,1-.3.4,1.42,1.42,0,0,1-.6.2.86.86,0,0,1-.6-.3,6.19,6.19,0,0,1-.3-1.6C430.7,232.5,430.5,232,430.2,232Z"/><path d="M436.2,233.8A3.4,3.4,0,0,1,435,235a3,3,0,0,1-1.1.4.86.86,0,0,1-.6-.3.84.84,0,0,1-.2-.7,4,4,0,0,1,1-2.5,2.75,2.75,0,0,1,2.1-1.3.51.51,0,0,1,.5.4c0,.1.1.1.2.1s.4.1.4.3v.4a7.74,7.74,0,0,0-.2,1.8c0,.7.1,1.1.4,1.3.1.1.2.2.2.3s-.1.2-.2.3-.2.1-.4.1-.4-.2-.6-.5A2.27,2.27,0,0,1,436.2,233.8Zm-.3-2.5c-.4,0-.8.4-1.3,1.1a3.44,3.44,0,0,0-.8,1.8c0,.3.1.5.3.5s.8-.3,1.3-1a3.39,3.39,0,0,0,.9-1.8C436.3,231.5,436.2,231.3,435.9,231.3Z"/><path d="M440,228c.2,0,.3.1.3.4a7,7,0,0,1-.4,1.7,10.62,10.62,0,0,0-.4,1.9,10.36,10.36,0,0,0-.1,1.6,6.15,6.15,0,0,0,.1,1.4v.2a.6.6,0,0,1-.1.4c-.1.1-.2.2-.3.2a.27.27,0,0,1-.3-.3,2.22,2.22,0,0,1-.1-.9,17.13,17.13,0,0,1,.4-3.6,6.35,6.35,0,0,1,.6-2.5C439.8,228.1,439.9,228,440,228Z"/><path d="M444.3,233.9a5.27,5.27,0,0,1-1.4,1,2.3,2.3,0,0,1-.9.3.75.75,0,0,1-.7-.4,1.08,1.08,0,0,1-.2-.8,6.09,6.09,0,0,1,.3-1.7,4.93,4.93,0,0,1,.4-1.2.52.52,0,0,1,.4-.2c.1,0,.1,0,.2.1a.5.5,0,0,1,0,.6c-.2.3-.2.4-.2.5a4.2,4.2,0,0,0-.2.5,2.92,2.92,0,0,0-.2.9,1.09,1.09,0,0,0,.1.5.27.27,0,0,0,.3.3,1.27,1.27,0,0,0,.6-.1,9.22,9.22,0,0,0,.8-.5,3.81,3.81,0,0,0,.6-.5.76.76,0,0,0,.2-.5c0-.2.1-.6.1-1.1s.2-.9.4-.9.3,0,.3.1a2,2,0,0,1,.1.5v.7c0,.4-.1.6-.1.8a9.86,9.86,0,0,1-.3,2.4,7.71,7.71,0,0,1-.7,2,1.56,1.56,0,0,1-1.3.8,2.46,2.46,0,0,1-1.5-.5c-.4-.3-.7-.6-.7-.8a.37.37,0,0,1,.1-.3c0-.1.1-.1.2-.1a.1.1,0,0,1,.1.1,2,2,0,0,0,1.8.9c.4,0,.8-.4,1.1-1.1a8,8,0,0,0,.5-2.1C444.3,234.1,444.3,234,444.3,233.9Z"/><path d="M448.6,234.4c0-.2-.2-.4-.7-.7a5.35,5.35,0,0,1-1.2-.7.86.86,0,0,1-.3-.6,1.51,1.51,0,0,1,.9-1.4,3,3,0,0,1,1.4-.6.75.75,0,0,1,.5.1.52.52,0,0,1,.2.4c0,.1,0,.2-.1.2s-.1.1-.2.1a.31.31,0,0,1-.2-.1.35.35,0,0,1-.2-.1,4.18,4.18,0,0,0-.9.3c-.4.2-.7.5-.7.7a.52.52,0,0,0,.2.4,5.76,5.76,0,0,0,.9.5,5.58,5.58,0,0,1,.8.5.86.86,0,0,1,.3.6c0,.4-.3.8-.9,1.1a3.92,3.92,0,0,1-1.8.4c-.5,0-.7-.2-.7-.5a.22.22,0,0,1,.2-.2.37.37,0,0,1,.3-.1h.5a3.55,3.55,0,0,0,1-.2C448.3,234.7,448.5,234.6,448.6,234.4Z"/><path d="M451.1,234.4a2.49,2.49,0,0,0,.1.8v.1c0,.1,0,.1-.1.2a.37.37,0,0,1-.3.1c-.3,0-.4-.3-.4-.8a18.48,18.48,0,0,1,.3-2.6,3.22,3.22,0,0,0,.1-.8.9.9,0,0,1,.1-.5c.1-.1.2-.2.3-.2a.6.6,0,0,1,.4.1.31.31,0,0,1,.1.2.49.49,0,0,1-.1.3,9.54,9.54,0,0,0-.4,1.7C451.2,233.4,451.1,234,451.1,234.4Zm.5-4.9c-.1,0-.1-.1-.1-.2v-.1a1.09,1.09,0,0,1-.1-.5c0-.1.1-.2.2-.4a.76.76,0,0,1,.5-.2.37.37,0,0,1,.3.1c.1.1.2.1.2.2a1.09,1.09,0,0,1-.1.5,2.19,2.19,0,0,1-.3.5A2.14,2.14,0,0,1,451.6,229.5Z"/><path d="M455,234.4c0-.2-.2-.4-.7-.7a5.35,5.35,0,0,1-1.2-.7.86.86,0,0,1-.3-.6,1.51,1.51,0,0,1,.9-1.4,3,3,0,0,1,1.4-.6.75.75,0,0,1,.5.1.52.52,0,0,1,.2.4c0,.1,0,.2-.1.2s-.1.1-.2.1a.31.31,0,0,1-.2-.1.35.35,0,0,1-.2-.1,4.18,4.18,0,0,0-.9.3c-.4.2-.7.5-.7.7a.52.52,0,0,0,.2.4,5.76,5.76,0,0,0,.9.5,5.58,5.58,0,0,1,.8.5.86.86,0,0,1,.3.6c0,.4-.3.8-.9,1.1a3.92,3.92,0,0,1-1.8.4c-.5,0-.7-.2-.7-.5a.22.22,0,0,1,.2-.2.37.37,0,0,1,.3-.1h.5a3.55,3.55,0,0,0,1-.2C454.7,234.7,454.9,234.6,455,234.4Z"/></g><path id="path78" class="cls-1" d="M18.4,44.4c0-11.1,13.1-20.2,29.2-20.2s29.2,9,29.2,20.2S63.7,64.6,47.6,64.6,18.4,55.5,18.4,44.4"/><path id="path92" class="cls-1" d="M388.1,32.2c0-11.3,18.8-20.5,42-20.5s42,9.2,42,20.5-18.8,20.5-42,20.5-42-9.2-42-20.5"/><path id="path108" class="cls-1" d="M7.4,175.5c0-11.1,13-20.2,29.1-20.2s29.1,9,29.1,20.2-13,20.2-29.1,20.2S7.4,186.6,7.4,175.5"/><path id="path122" class="cls-1" d="M295.5,140.6c0-9.9,15.6-18,34.9-18s34.9,8,34.9,18-15.6,18-34.9,18-34.9-8-34.9-18"/><path id="path150" class="cls-1" d="M405.1,105.7c0-12.6,13-22.8,28.9-22.8s28.9,10.2,28.9,22.8S450,128.5,434,128.5s-28.9-10.2-28.9-22.8"/><path id="path166" class="cls-1" d="M257.4,243.6c0-10.5,16-19,35.8-19s35.8,8.5,35.8,19-16,19-35.8,19-35.8-8.5-35.8-19"/><path id="path175" class="cls-1" d="M93.7,32.9c0-11.7,18.2-21.2,40.6-21.2S175,21.2,175,32.9s-18.2,21.2-40.7,21.2S93.7,44.6,93.7,32.9"/><g id="shape52-83"><path id="path198" class="cls-3" d="M183.59,141.69l-24.3,54.5"/></g><g id="shape58-89"><path id="path208" class="cls-3" d="M421.48,212.83l-84.7-140.6"/></g><path id="path220" class="cls-1" d="M13.4,241.4c0-11,16.6-20,37.2-20s37.2,9,37.2,20-16.6,20-37.2,20-37.2-8.9-37.2-20"/><g id="shape63-98"><path id="path227" class="cls-3" d="M237.49,96.87l34.9-25.1"/></g><g id="shape65-101"><path id="path232" class="cls-3" d="M342.67,62.75l62.4,43.1"/></g><g id="shape67-104"><path id="path237" class="cls-3" d="M333.48,37.72l54.8-8"/></g><g id="shape70-107"><path id="path242" class="cls-3" d="M83.19,97.16l86.3,23"/></g><g id="shape73-110"><path id="path247" class="cls-3" d="M74.66,111.7l62.14,90"/></g><g id="shape76-113"><path id="path252" class="cls-3" d="M181.46,227.66l75.9,16.1"/></g><g id="shape77-116"><path id="path257" class="cls-3" d="M217.73,149.2l55.9,78.5"/></g><g id="shape78-119"><path id="path262" class="cls-3" d="M295.68,140.18l-46.5-20"/></g><g id="shape79-122"><path id="path267" class="cls-3" d="M127.72,214.75l-61-28.6"/></g><g id="shape80-125"><path id="path272" class="cls-3" d="M136.79,227.7l-49,13.7"/></g><g id="shape81-128"><path id="path277" class="cls-3" d="M181.2,96.76l-107.9-42"/></g><g id="shape82-131"><path id="path282" class="cls-3" d="M310,82.94l4.7,40"/></g><g id="shape94-134"><path id="path287" class="cls-4" d="M308.56,108.29h-.3V107c0-.1.1,0,.1,0h.2v.1l.1,1.1h0c0,.1,0,.1-.1.1Z"/></g><g id="shape96-136"><path id="path292" class="cls-3" d="M270.48,28.26l8.9,8.5"/></g><g id="shape97-139"><path id="path297" class="cls-3" d="M175.17,36.36l92.3,16.1"/></g><path id="path78-2" data-name="path78" class="cls-1" d="M20.26,97c0-11.92,14.07-21.7,31.37-21.7S83,85,83,97s-14.07,21.7-31.37,21.7S20.26,108.93,20.26,97"/><path id="path175-2" data-name="path175" class="cls-1" d="M201.1,17.8c0-8.7,17.4-15.9,38.8-15.9S278.7,9,278.7,17.8s-17.4,15.9-38.8,15.9-38.8-7.1-38.8-15.9"/><path id="path78-3" data-name="path78" class="cls-1" d="M170.2,119.2c0-16.5,17.5-30,38.9-30,21.6,0,38.9,13.4,38.9,30s-17.5,30-38.9,30c-21.4-.2-38.9-13.5-38.9-30"/><path d="M120.45,22.69a.87.87,0,0,1,.17-.43.37.37,0,0,1,.3-.18c.25,0,.41.29.51.87a26.07,26.07,0,0,0,1.67,4.36c.11-.19.23-.38.36-.58.58-.91,1-1.61,1.25-2.1,1-1.9,1.69-2.85,2-2.85s.33.12.33.38a.2.2,0,0,1,0,.11l-.3.43c-.57.83-1.12,1.69-1.65,2.59-.41.71-.76,1.27-1,1.7a3.91,3.91,0,0,0-.54,1,.52.52,0,0,1-.26.29,1,1,0,0,1-.48.11c-.08,0-.26-.38-.53-1.13-.12-.33-.54-1.38-1.24-3.15C120.63,23.19,120.45,22.71,120.45,22.69Z"/><path d="M127.84,27.4a3.62,3.62,0,0,0,.09.75.34.34,0,0,1,0,.13c0,.06,0,.12-.14.21a.48.48,0,0,1-.31.12c-.29,0-.43-.26-.43-.78a14.8,14.8,0,0,1,.34-2.56,7.12,7.12,0,0,0,.11-.75,1,1,0,0,1,.1-.47.32.32,0,0,1,.29-.2.54.54,0,0,1,.35.11.3.3,0,0,1,.13.24,1.41,1.41,0,0,1-.06.35,15.11,15.11,0,0,0-.41,1.66A8.05,8.05,0,0,0,127.84,27.4Zm.58-4.91c-.06,0-.11-.07-.14-.2s0-.08-.05-.13a1.33,1.33,0,0,1-.12-.5.49.49,0,0,1,.21-.36.69.69,0,0,1,.46-.18.53.53,0,0,1,.29.1c.1.06.16.13.16.19a2,2,0,0,1-.11.49.73.73,0,0,1-.35.47A.84.84,0,0,1,128.42,22.49Z"/><path d="M132.75,26.56A5.37,5.37,0,0,1,131.51,28a2.06,2.06,0,0,1-1.22.51.78.78,0,0,1-.67-.32,1.39,1.39,0,0,1-.25-.88,3.77,3.77,0,0,1,.9-2.28,2.52,2.52,0,0,1,1.95-1.16,1.18,1.18,0,0,1,.85.39l.62-2.88a.53.53,0,0,1,.24-.39.59.59,0,0,1,.28-.1c.2,0,.31.18.31.54a4.44,4.44,0,0,1-.21.72,22.1,22.1,0,0,0-.6,2.38,11.28,11.28,0,0,0-.29,2.26c0,.58.13.88.38.88a1,1,0,0,0,.51-.17.37.37,0,0,1,.21-.08c.09,0,.14.07.14.19s-.13.32-.4.52a1.36,1.36,0,0,1-.8.29c-.49,0-.73-.46-.73-1.4C132.73,26.88,132.74,26.72,132.75,26.56Zm-.57-2.06a1.86,1.86,0,0,0-1.41,1,3.11,3.11,0,0,0-.7,1.79q0,.54.36.54a1.54,1.54,0,0,0,.84-.36,4.71,4.71,0,0,0,1-1.14,2.62,2.62,0,0,0,.51-1.19.66.66,0,0,0-.17-.4A.59.59,0,0,0,132.18,24.5Z"/><path d="M139.32,26.89c0,.29-.27.65-.8,1.08a2.6,2.6,0,0,1-1.63.63,1.42,1.42,0,0,1-1.1-.42,1.67,1.67,0,0,1-.38-1.16,3.88,3.88,0,0,1,.85-2.39,2.34,2.34,0,0,1,1.85-1.14.73.73,0,0,1,.75.74,1.75,1.75,0,0,1-.67,1.29,8.23,8.23,0,0,1-1.77,1.22.36.36,0,0,0-.23.31.79.79,0,0,0,.21.58.82.82,0,0,0,.63.22,2.78,2.78,0,0,0,1.93-1,.4.4,0,0,1,.21-.15C139.27,26.66,139.32,26.74,139.32,26.89Zm-3.06-.69c1.24-.74,1.86-1.33,1.86-1.78,0-.18-.07-.26-.23-.26a1.31,1.31,0,0,0-.91.59A3.47,3.47,0,0,0,136.26,26.2Z"/><path d="M141.52,28.59a1.27,1.27,0,0,1-1-.45,1.69,1.69,0,0,1-.39-1.13,3.91,3.91,0,0,1,.77-2.24,2.18,2.18,0,0,1,1.82-1.1,1.39,1.39,0,0,1,1.14.54,2,2,0,0,1,.44,1.29,3.08,3.08,0,0,1-.9,2.12A2.59,2.59,0,0,1,141.52,28.59Zm-.61-1.7a1.34,1.34,0,0,0,.18.73.57.57,0,0,0,.5.28,1.85,1.85,0,0,0,1.31-.72,2.31,2.31,0,0,0,.66-1.6,1.38,1.38,0,0,0-.25-.87.8.8,0,0,0-.68-.34,1.45,1.45,0,0,0-1.22.87A3.36,3.36,0,0,0,140.91,26.89Z"/><path d="M107.71,38.17c0-.19-.24-.41-.71-.65a6.87,6.87,0,0,1-1.2-.73.83.83,0,0,1-.32-.62,1.7,1.7,0,0,1,.88-1.45,2.85,2.85,0,0,1,1.43-.57.83.83,0,0,1,.51.12.5.5,0,0,1,.17.43.28.28,0,0,1-.12.23.41.41,0,0,1-.18.1A.64.64,0,0,1,108,35l-.19-.06a3,3,0,0,0-.89.32c-.45.21-.67.46-.67.72a.57.57,0,0,0,.24.45,4,4,0,0,0,.85.49,3.37,3.37,0,0,1,.79.51.82.82,0,0,1,.3.63c0,.45-.31.8-.93,1.06a4.75,4.75,0,0,1-1.77.38c-.47,0-.71-.17-.71-.49a.25.25,0,0,1,.16-.24.63.63,0,0,1,.32-.08,1.1,1.1,0,0,1,.25,0l.24.05a3.82,3.82,0,0,0,1-.17A1.14,1.14,0,0,0,107.71,38.17Z"/><path d="M110.6,39.39a1.27,1.27,0,0,1-1-.45,1.69,1.69,0,0,1-.39-1.13,3.91,3.91,0,0,1,.77-2.24,2.18,2.18,0,0,1,1.82-1.1,1.39,1.39,0,0,1,1.14.54,2,2,0,0,1,.44,1.29,3.08,3.08,0,0,1-.9,2.12A2.59,2.59,0,0,1,110.6,39.39Zm-.61-1.7a1.34,1.34,0,0,0,.18.73.57.57,0,0,0,.5.28A1.85,1.85,0,0,0,112,38a2.31,2.31,0,0,0,.66-1.6,1.38,1.38,0,0,0-.25-.87.8.8,0,0,0-.68-.34,1.45,1.45,0,0,0-1.22.87A3.26,3.26,0,0,0,110,37.69Z"/><path d="M115.29,37.43s.06-.13.11-.22a7.46,7.46,0,0,1,.54-1.07,8.12,8.12,0,0,1,.56-.75,3,3,0,0,1,.55-.54,1.78,1.78,0,0,1,.45-.26,1.07,1.07,0,0,1,.39-.07.88.88,0,0,1,.62.23.73.73,0,0,1,.24.54.46.46,0,0,1-.08.25.33.33,0,0,1-.26.11.45.45,0,0,1-.34-.17.51.51,0,0,0-.33-.16c-.31,0-.73.37-1.27,1.11a5.15,5.15,0,0,0-1,2.44.74.74,0,0,1-.17.45.52.52,0,0,1-.35.11c-.14,0-.24-.11-.31-.32a4.38,4.38,0,0,1-.1-1.08c0-.14,0-.44,0-.91a10.55,10.55,0,0,1,.1-1.34c0-.06,0-.19,0-.39a2.23,2.23,0,0,1,.07-.47.62.62,0,0,1,.19-.25.47.47,0,0,1,.31-.11.3.3,0,0,1,.25.1.37.37,0,0,1,.08.22,1.77,1.77,0,0,1-.09.48,3.93,3.93,0,0,0-.12.48,1.92,1.92,0,0,1-.05.32,7.81,7.81,0,0,0-.09,1v.28Z"/><path d="M120.23,39.23a5.63,5.63,0,0,0-.38-1.32,9.81,9.81,0,0,1-.72-2.76c0-.41.13-.62.41-.62s.4.18.4.55a6,6,0,0,0,0,.7,7.47,7.47,0,0,0,.21.89,11.24,11.24,0,0,0,.4,1.2q.11.3.15.45a3.51,3.51,0,0,0,.24-.39c.52-.87.93-1.53,1.24-2a9.26,9.26,0,0,1,.74-1,1.89,1.89,0,0,1,.43-.38.67.67,0,0,1,.28-.06.34.34,0,0,1,.27.12.45.45,0,0,1,.1.28q0,.21-.36.45a5,5,0,0,0-1,1.14,22.42,22.42,0,0,0-1.43,2.35q-.39.72-.6.72C120.52,39.52,120.38,39.42,120.23,39.23Z"/><path d="M128.06,37.69c0,.29-.27.65-.8,1.08a2.6,2.6,0,0,1-1.63.63,1.42,1.42,0,0,1-1.1-.42,1.69,1.69,0,0,1-.38-1.16,3.88,3.88,0,0,1,.85-2.39,2.34,2.34,0,0,1,1.85-1.14.73.73,0,0,1,.75.74,1.77,1.77,0,0,1-.66,1.29,8.58,8.58,0,0,1-1.78,1.22.36.36,0,0,0-.23.31.79.79,0,0,0,.21.58.82.82,0,0,0,.63.22,2.78,2.78,0,0,0,1.93-1,.38.38,0,0,1,.22-.15C128,37.46,128.06,37.54,128.06,37.69ZM125,37c1.24-.74,1.87-1.33,1.87-1.78,0-.18-.08-.26-.24-.26a1.31,1.31,0,0,0-.91.59A3.42,3.42,0,0,0,125,37Z"/><path d="M132.08,37.58s-.13.06-.29.25a4.32,4.32,0,0,1-1,.84,2.35,2.35,0,0,1-1.16.36.79.79,0,0,1-.62-.25,1,1,0,0,1-.22-.69,3,3,0,0,1,.51-1.51,4.9,4.9,0,0,1,1.44-1.47,3.09,3.09,0,0,1,1.62-.62,1,1,0,0,1,.64.21l.12.09a.56.56,0,0,1,.15.23,1,1,0,0,1,.07.28.8.8,0,0,1,0,.2,9.5,9.5,0,0,0-.37,1.21c-.06.32-.13.86-.21,1.61a12.71,12.71,0,0,1-.23,1.57A3.36,3.36,0,0,1,132,41a2.21,2.21,0,0,1-.77.78,1.85,1.85,0,0,1-.92.25,2.81,2.81,0,0,1-1.62-.56c-.54-.38-.8-.69-.8-.91s0-.22.16-.22a1.77,1.77,0,0,1,.47.26,3.46,3.46,0,0,0,1.86.69,1.18,1.18,0,0,0,1.09-.77,6.57,6.57,0,0,0,.52-2.3C132,37.94,132.05,37.75,132.08,37.58Zm0-2.41a1.75,1.75,0,0,0-.93.39,4.55,4.55,0,0,0-1.09,1.13,2.39,2.39,0,0,0-.53,1.25.34.34,0,0,0,.11.27.33.33,0,0,0,.24.1,2.05,2.05,0,0,0,1-.4A3.54,3.54,0,0,0,132,36.79a2.41,2.41,0,0,0,.45-1.13C132.43,35.33,132.31,35.17,132.07,35.17Z"/><path d="M135.68,31.73c.21,0,.32.14.32.41a8.77,8.77,0,0,1-.39,1.71,13.61,13.61,0,0,0-.37,1.88,13.14,13.14,0,0,0-.13,1.62,11.6,11.6,0,0,0,.09,1.44c0,.09,0,.15,0,.2a.51.51,0,0,1-.15.37.43.43,0,0,1-.32.16c-.15,0-.26-.09-.32-.29a3.41,3.41,0,0,1-.09-.93,24,24,0,0,1,.35-3.65,12.28,12.28,0,0,1,.57-2.55C135.4,31.86,135.54,31.73,135.68,31.73Z"/><path d="M137.56,38.2a3.62,3.62,0,0,0,.09.75.83.83,0,0,1,0,.13c0,.06,0,.12-.15.21a.47.47,0,0,1-.31.12q-.42,0-.42-.78a15.58,15.58,0,0,1,.33-2.56,5.78,5.78,0,0,0,.12-.75,1,1,0,0,1,.1-.47.31.31,0,0,1,.28-.2.57.57,0,0,1,.36.11.33.33,0,0,1,.13.24,1.12,1.12,0,0,1-.07.35,17,17,0,0,0-.4,1.66A6.88,6.88,0,0,0,137.56,38.2Zm.57-4.91c-.06,0-.11-.07-.14-.2a1.12,1.12,0,0,0-.05-.13,1.3,1.3,0,0,1-.11-.5.48.48,0,0,1,.2-.36.71.71,0,0,1,.47-.18.5.5,0,0,1,.28.1c.11.06.16.13.16.19a1.63,1.63,0,0,1-.11.49.72.72,0,0,1-.34.47A.92.92,0,0,1,138.13,33.29Z"/><path d="M142.28,37.58a5.07,5.07,0,0,1-1.22,1.23,2,2,0,0,1-1.1.42.75.75,0,0,1-.58-.29,1,1,0,0,1-.25-.73,4.16,4.16,0,0,1,1-2.49,2.8,2.8,0,0,1,2.06-1.34.59.59,0,0,1,.54.43.2.2,0,0,0,.18.14q.36,0,.36.27a2.11,2.11,0,0,1-.05.37,11.52,11.52,0,0,0-.23,1.83c0,.71.13,1.14.4,1.28a.29.29,0,0,1,.19.26c0,.09-.06.18-.19.27a.61.61,0,0,1-.36.14c-.23,0-.41-.16-.56-.47A3.11,3.11,0,0,1,142.28,37.58ZM142,35.1c-.38,0-.83.36-1.35,1.09a3.4,3.4,0,0,0-.76,1.8q0,.51.33.51c.32,0,.77-.33,1.34-1a2.86,2.86,0,0,0,.86-1.79Q142.43,35.1,142,35.1Z"/><path d="M147.59,35.8a.74.74,0,0,0-.49.29,8.08,8.08,0,0,0-.83,1.34,8.61,8.61,0,0,1-.94,1.6.64.64,0,0,1-.35.19c-.35,0-.52-.17-.52-.5a3.33,3.33,0,0,1,.07-.6,15.7,15.7,0,0,0,.24-2.8.71.71,0,0,1,.14-.37c.1-.14.19-.2.27-.2a.37.37,0,0,1,.33.14,1.15,1.15,0,0,1,.09.56,11.69,11.69,0,0,1-.26,1.83,4.35,4.35,0,0,0-.09.58s0,.07,0,.07a5.75,5.75,0,0,0,.61-1,6.49,6.49,0,0,1,1-1.5,1.25,1.25,0,0,1,.91-.44.74.74,0,0,1,.64.36,3.13,3.13,0,0,1,.37,1.32A7.42,7.42,0,0,0,149,38a.32.32,0,0,0,.31.26,1,1,0,0,0,.35-.09l.05,0c.12,0,.19.07.19.22a.58.58,0,0,1-.26.41A.93.93,0,0,1,149,39a.64.64,0,0,1-.57-.3,4.14,4.14,0,0,1-.33-1.58C148,36.23,147.86,35.8,147.59,35.8Z"/><path d="M154.3,39.13l-.22-.11a2.38,2.38,0,0,0-1.05-.19,10,10,0,0,0-1.27.14,2.4,2.4,0,0,0-1.22.46.69.69,0,0,1-.47.19.61.61,0,0,1-.3-.08.25.25,0,0,1-.18-.21l.57-.6a40.22,40.22,0,0,0,3-3.34s-.06,0-.15,0-.48,0-1,.11a4.09,4.09,0,0,1-.71,0c-.6,0-.9-.15-.9-.47s.13-.36.4-.36l.08,0a2,2,0,0,0,.77.13,11.42,11.42,0,0,0,1.34-.09l.17,0,.23,0,.4,0a.75.75,0,0,1,.31.08.22.22,0,0,1,.13.25v0a15.71,15.71,0,0,1-2.33,2.76,4.05,4.05,0,0,0-.57.68.08.08,0,0,0,.08,0l.62-.12a8.14,8.14,0,0,1,1.57-.23q.84,0,.84.51A.7.7,0,0,1,154.3,39.13Z"/><path d="M158.05,37.58a5.24,5.24,0,0,1-1.21,1.23,2,2,0,0,1-1.11.42.75.75,0,0,1-.58-.29,1,1,0,0,1-.25-.73,4.18,4.18,0,0,1,1-2.49A2.77,2.77,0,0,1,158,34.38a.6.6,0,0,1,.55.43.18.18,0,0,0,.18.14c.23,0,.35.09.35.27a2.11,2.11,0,0,1,0,.37,12.88,12.88,0,0,0-.23,1.83c0,.71.13,1.14.4,1.28a.29.29,0,0,1,.19.26.36.36,0,0,1-.18.27.66.66,0,0,1-.37.14c-.22,0-.41-.16-.56-.47A3.28,3.28,0,0,1,158.05,37.58Zm-.26-2.48c-.39,0-.84.36-1.35,1.09a3.35,3.35,0,0,0-.77,1.8q0,.51.33.51c.32,0,.77-.33,1.34-1a2.86,2.86,0,0,0,.86-1.79C158.2,35.31,158.06,35.1,157.79,35.1Z"/><path d="M39,40.88l-.07-.12a.8.8,0,0,1-.15-.36A.52.52,0,0,1,39,40a.79.79,0,0,1,.43-.17h.22l.17,0a15.2,15.2,0,0,1,2-.22,2.6,2.6,0,0,1,1.72.52,1.58,1.58,0,0,1,.64,1.27,2,2,0,0,1-.63,1.37,4.57,4.57,0,0,1-1.66,1.06,23.24,23.24,0,0,0,2.63,1.94.56.56,0,0,1,.32.49.53.53,0,0,1-.22.39.66.66,0,0,1-.42.19,1.19,1.19,0,0,1-.64-.24c-.25-.17-.59-.42-1-.77s-.7-.56-.77-.63a14.4,14.4,0,0,0-1.33-1,.45.45,0,0,1-.52-.51.48.48,0,0,1,.23-.41.8.8,0,0,1,.52-.18l.18,0,.13,0a2.94,2.94,0,0,0,1.16-.53,1.46,1.46,0,0,0,.84-1.2.69.69,0,0,0-.35-.59,1.59,1.59,0,0,0-.9-.24,5.09,5.09,0,0,0-1,.08,2.16,2.16,0,0,0-.43.1.45.45,0,0,0-.09.16,9.54,9.54,0,0,0-.22,1c-.1.59-.2,1.23-.3,1.94a13.12,13.12,0,0,0-.13,1.55,2.52,2.52,0,0,0,.05.57,2.47,2.47,0,0,1,0,.44.59.59,0,0,1-.21.38.66.66,0,0,1-.45.2c-.45,0-.68-.31-.68-.94a19.17,19.17,0,0,1,.17-2.13c.11-.92.25-1.72.4-2.42,0-.11,0-.21.06-.29Z"/><path d="M49.79,45.08c0,.34-.28.74-.85,1.21A3,3,0,0,1,47,47a1.69,1.69,0,0,1-1.3-.52A2.06,2.06,0,0,1,45.24,45a4,4,0,0,1,1-2.56,2.72,2.72,0,0,1,2.07-1.2,1.17,1.17,0,0,1,.88.35,1.14,1.14,0,0,1,.33.82,2.21,2.21,0,0,1-.82,1.62,4.37,4.37,0,0,1-2.09,1.06.17.17,0,0,0-.14.18.68.68,0,0,0,.2.45.76.76,0,0,0,.56.21,2.79,2.79,0,0,0,2-1,.51.51,0,0,1,.36-.2C49.69,44.75,49.79,44.86,49.79,45.08Zm-3.28-.87a2.92,2.92,0,0,0,1.36-.65,1.33,1.33,0,0,0,.59-.92.42.42,0,0,0-.09-.27.3.3,0,0,0-.23-.11,1.37,1.37,0,0,0-.94.63A3.3,3.3,0,0,0,46.51,44.21Z"/><path d="M52.9,45.52c0-.18-.29-.39-.84-.65A3.89,3.89,0,0,1,50.78,44a1.15,1.15,0,0,1-.28-.76,1.83,1.83,0,0,1,1-1.51,3.31,3.31,0,0,1,1.81-.65c.55,0,.82.24.82.72a.42.42,0,0,1-.19.34.54.54,0,0,1-.32.15l-.19-.06a.46.46,0,0,0-.21-.07,2,2,0,0,0-.95.29c-.35.2-.53.42-.53.68a.54.54,0,0,0,.19.37,3.08,3.08,0,0,0,.76.45,3.61,3.61,0,0,1,1.11.72,1.11,1.11,0,0,1,.27.72c0,.47-.32.87-1,1.18a4.76,4.76,0,0,1-2.16.48c-.59,0-.88-.21-.88-.64a.52.52,0,0,1,.18-.4.61.61,0,0,1,.42-.17,1.22,1.22,0,0,1,.28.07,1,1,0,0,0,.37.08,3.41,3.41,0,0,0,1-.15A1.33,1.33,0,0,0,52.9,45.52Z"/><path d="M55.17,43.52h0c.11-.59.16-.93.16-1a1.07,1.07,0,0,1,.16-.61.49.49,0,0,1,.44-.24.82.82,0,0,1,.52.15.47.47,0,0,1,.18.35,3.78,3.78,0,0,1-.18.81l0,.11a9,9,0,0,0-.32,1.54,9.32,9.32,0,0,0-.05,1,3.92,3.92,0,0,0,.1.79.86.86,0,0,1,0,.15c0,.07-.07.18-.21.3a.65.65,0,0,1-.46.19c-.43,0-.64-.32-.64-1a11.32,11.32,0,0,1,.23-2C55.12,43.84,55.15,43.67,55.17,43.52Zm2.36-4a.77.77,0,0,1-.31.61.88.88,0,0,1-.54.26.69.69,0,0,1-.52-.24.7.7,0,0,1-.23-.49.77.77,0,0,1,.22-.57.93.93,0,0,1,.65-.22.74.74,0,0,1,.53.2A.61.61,0,0,1,57.53,39.5Z"/><path d="M24,93.57a5.86,5.86,0,0,0-.27,1.07,7.91,7.91,0,0,0-.18,1.51c.23,0,.46-.07.7-.09l1-.12a5.25,5.25,0,0,0,.69-.15,2.74,2.74,0,0,1,.6-.12c.39,0,.58.16.58.47,0,.06-.06.14-.17.23a.86.86,0,0,1-.43.2c-.18,0-.62.1-1.31.17a12.71,12.71,0,0,0-1.5.23.52.52,0,0,0-.28.15,3.37,3.37,0,0,0-.1.71c0,.42,0,.76,0,1v.61c0,.33-.12.5-.36.5a.62.62,0,0,1-.41-.17.59.59,0,0,1-.19-.46,40.64,40.64,0,0,1,.55-4.78c.09-.56.14-.87.14-.91a1,1,0,0,0-.06-.28,1.39,1.39,0,0,1-.08-.34.43.43,0,0,1,.15-.28.41.41,0,0,1,.27-.16l.65.08a10,10,0,0,0,1.11-.1c.92-.11,1.55-.17,1.89-.17a1.14,1.14,0,0,1,.64.14c.13.09.2.18.2.27a.58.58,0,0,1-.16.4.48.48,0,0,1-.34.17l-.18,0a5.41,5.41,0,0,0-.81-.09,11.24,11.24,0,0,0-1.36.1A2.52,2.52,0,0,0,24,93.57Z"/><path d="M31.1,97.75a5.67,5.67,0,0,1-1.35,1.37,2.19,2.19,0,0,1-1.23.46.82.82,0,0,1-.65-.32,1.2,1.2,0,0,1-.27-.81,4.61,4.61,0,0,1,1.15-2.77A3.06,3.06,0,0,1,31,94.2a.66.66,0,0,1,.61.47.22.22,0,0,0,.2.16q.39,0,.39.3a2.63,2.63,0,0,1,0,.41,13.86,13.86,0,0,0-.26,2c0,.79.15,1.26.45,1.42a.35.35,0,0,1,.21.29q0,.15-.21.3a.64.64,0,0,1-.4.16c-.25,0-.46-.17-.62-.52A3.41,3.41,0,0,1,31.1,97.75ZM30.8,95c-.43,0-.92.4-1.49,1.21a3.77,3.77,0,0,0-.86,2c0,.37.12.56.37.56s.86-.36,1.49-1.08a3.15,3.15,0,0,0,1-2C31.26,95.23,31.11,95,30.8,95Z"/><path d="M35.37,94.6l.94-.1c.3,0,.54,0,.74,0a1.1,1.1,0,0,1,.47.07.3.3,0,0,1,.09.24c0,.27-.18.41-.55.43s-.91.07-1.3.12a2.65,2.65,0,0,0-.64.13,7.73,7.73,0,0,0-.3,1.17,8.38,8.38,0,0,0-.25,1.44,1.23,1.23,0,0,0,.14.71.52.52,0,0,0,.43.18,2.11,2.11,0,0,0,1.16-.63.89.89,0,0,1,.45-.26c.14,0,.21.08.21.23s-.23.54-.68.91a2.17,2.17,0,0,1-1.38.56c-.79,0-1.18-.47-1.18-1.39A7.79,7.79,0,0,1,34,96.8a9.28,9.28,0,0,0,.24-1.26c0-.05,0-.07-.12-.07l-.5,0c-.42,0-.63-.17-.63-.5s.1-.28.29-.28h1a.23.23,0,0,0,.18-.09,2.19,2.19,0,0,0,.23-.63c.11-.35.19-.7.27-1s.23-.52.46-.52a.4.4,0,0,1,.33.15.45.45,0,0,1,.12.27,6.07,6.07,0,0,1-.18.7Z"/><path d="M39.75,94.6l1-.1c.3,0,.54,0,.73,0a1,1,0,0,1,.47.07.27.27,0,0,1,.1.24c0,.27-.18.41-.55.43s-.91.07-1.3.12a2.82,2.82,0,0,0-.65.13,8.68,8.68,0,0,0-.29,1.17A8.38,8.38,0,0,0,39,98.05a1.23,1.23,0,0,0,.14.71.51.51,0,0,0,.43.18,2.14,2.14,0,0,0,1.16-.63.82.82,0,0,1,.45-.26c.14,0,.21.08.21.23s-.23.54-.68.91a2.17,2.17,0,0,1-1.38.56c-.79,0-1.19-.47-1.19-1.39a8,8,0,0,1,.25-1.56,9.28,9.28,0,0,0,.24-1.26c0-.05,0-.07-.12-.07l-.51,0c-.41,0-.62-.17-.62-.5s.09-.28.29-.28h1a.23.23,0,0,0,.18-.09A2.57,2.57,0,0,0,39,94c.1-.35.19-.7.27-1s.23-.52.46-.52a.4.4,0,0,1,.33.15.5.5,0,0,1,.11.27,5,5,0,0,1-.17.7Z"/><path d="M45.6,97.4A6.4,6.4,0,0,1,44.32,99a1.88,1.88,0,0,1-1.21.58.9.9,0,0,1-.66-.37,1.75,1.75,0,0,1-.33-1.16,8.83,8.83,0,0,1,.3-1.89,6.64,6.64,0,0,0,.26-1.46.48.48,0,0,1,.45-.29.42.42,0,0,1,.32.14.44.44,0,0,1,.13.3,3,3,0,0,1-.24,1,6,6,0,0,0-.46,2.1c0,.53.13.8.37.8s.72-.27,1.21-.8a6.61,6.61,0,0,0,1.25-2.25,3.47,3.47,0,0,1,.34-.75.4.4,0,0,1,.35-.17c.22,0,.33.14.33.44a2.38,2.38,0,0,1-.09.35,7.55,7.55,0,0,0-.3,2,2,2,0,0,0,.38,1.48c.13.12.2.22.2.3s-.07.17-.2.25a.78.78,0,0,1-.36.11c-.23,0-.41-.17-.55-.51a4.12,4.12,0,0,1-.21-1.5V97.4Z"/><path d="M48.94,97.58s.07-.14.12-.24a7.52,7.52,0,0,1,.61-1.19,7.08,7.08,0,0,1,.61-.83,3.75,3.75,0,0,1,.61-.6,2.05,2.05,0,0,1,.5-.29,1.41,1.41,0,0,1,.44-.08,1,1,0,0,1,.69.26.8.8,0,0,1,.27.6.39.39,0,0,1-.1.27.34.34,0,0,1-.29.12.5.5,0,0,1-.37-.18.52.52,0,0,0-.37-.18q-.51,0-1.41,1.23a5.79,5.79,0,0,0-1.09,2.71.73.73,0,0,1-.19.5.52.52,0,0,1-.38.13c-.16,0-.28-.12-.35-.36a4.73,4.73,0,0,1-.11-1.2c0-.15,0-.49,0-1a12.43,12.43,0,0,1,.12-1.49c0-.06,0-.21,0-.44a3.47,3.47,0,0,1,.09-.52.53.53,0,0,1,.21-.27.52.52,0,0,1,.34-.13.34.34,0,0,1,.28.12.36.36,0,0,1,.09.24,2.42,2.42,0,0,1-.1.54,3.14,3.14,0,0,0-.13.53,2.33,2.33,0,0,1-.06.35c0,.14-.06.51-.1,1.1v.31Z"/><path d="M56,97.75a6.05,6.05,0,0,1-1.35,1.37,2.22,2.22,0,0,1-1.23.46.81.81,0,0,1-.65-.32,1.2,1.2,0,0,1-.27-.81,4.65,4.65,0,0,1,1.14-2.77A3.1,3.1,0,0,1,56,94.2a.65.65,0,0,1,.61.47c0,.1.11.16.2.16.27,0,.4.1.4.3a2.63,2.63,0,0,1-.05.41,12.93,12.93,0,0,0-.27,2c0,.79.15,1.26.45,1.42a.34.34,0,0,1,.22.29q0,.15-.21.3a.67.67,0,0,1-.41.16c-.25,0-.46-.17-.62-.52A3.59,3.59,0,0,1,56,97.75ZM55.74,95c-.43,0-.93.4-1.5,1.21a3.74,3.74,0,0,0-.85,2c0,.37.12.56.37.56s.85-.36,1.49-1.08a3.21,3.21,0,0,0,1-2C56.2,95.23,56.05,95,55.74,95Z"/><path d="M62.46,99.47l-.24-.12a2.72,2.72,0,0,0-1.17-.21,9.69,9.69,0,0,0-1.41.16,2.73,2.73,0,0,0-1.35.5.78.78,0,0,1-.53.22.82.82,0,0,1-.34-.09c-.12-.06-.19-.14-.19-.24q.23-.25.63-.66a44.28,44.28,0,0,0,3.35-3.71s-.06,0-.16,0-.54,0-1.1.13a5.06,5.06,0,0,1-.79.06c-.67,0-1-.18-1-.53s.15-.4.44-.4l.1,0a2.12,2.12,0,0,0,.85.15A12.17,12.17,0,0,0,61,94.59l.19,0a1.29,1.29,0,0,0,.25,0,3.2,3.2,0,0,1,.45,0,.75.75,0,0,1,.34.09.27.27,0,0,1,.15.29h0a17.13,17.13,0,0,1-2.58,3.07,4.9,4.9,0,0,0-.64.76s0,0,.1,0L60,98.6a9.37,9.37,0,0,1,1.75-.24c.62,0,.93.18.93.56A.74.74,0,0,1,62.46,99.47Z"/><path d="M64,98.44a3.8,3.8,0,0,0,.11.83.86.86,0,0,1,0,.15c0,.06,0,.13-.16.23a.51.51,0,0,1-.34.14c-.31,0-.47-.29-.47-.87a16.65,16.65,0,0,1,.37-2.84c.08-.46.13-.74.13-.84a1.05,1.05,0,0,1,.11-.52.34.34,0,0,1,.32-.22.61.61,0,0,1,.39.12.33.33,0,0,1,.14.26,1.34,1.34,0,0,1-.07.39,18.89,18.89,0,0,0-.45,1.85A8.37,8.37,0,0,0,64,98.44ZM64.61,93q-.1,0-.15-.21a1.66,1.66,0,0,0-.06-.16,1.4,1.4,0,0,1-.13-.55.58.58,0,0,1,.23-.4.81.81,0,0,1,.52-.2.61.61,0,0,1,.31.11c.12.07.18.15.18.21a2.19,2.19,0,0,1-.12.55.82.82,0,0,1-.38.52A1,1,0,0,1,64.61,93Z"/><path d="M67.06,99.77A1.39,1.39,0,0,1,66,99.26,1.87,1.87,0,0,1,65.52,98a4.29,4.29,0,0,1,.85-2.48,2.44,2.44,0,0,1,2-1.22,1.54,1.54,0,0,1,1.27.6,2.23,2.23,0,0,1,.49,1.43,3.39,3.39,0,0,1-1,2.35A2.85,2.85,0,0,1,67.06,99.77Zm-.68-1.89a1.48,1.48,0,0,0,.2.8.65.65,0,0,0,.55.32,2,2,0,0,0,1.46-.8,2.58,2.58,0,0,0,.74-1.78,1.62,1.62,0,0,0-.28-1,.91.91,0,0,0-.76-.38,1.63,1.63,0,0,0-1.35,1A3.68,3.68,0,0,0,66.38,97.88Z"/><path d="M74.31,95.77a.8.8,0,0,0-.55.33,8.72,8.72,0,0,0-.92,1.49,10.2,10.2,0,0,1-1,1.77.65.65,0,0,1-.39.21c-.38,0-.58-.18-.58-.55a4.34,4.34,0,0,1,.08-.67,17.23,17.23,0,0,0,.27-3.11.71.71,0,0,1,.16-.41c.11-.15.21-.23.3-.23a.39.39,0,0,1,.36.16,1.23,1.23,0,0,1,.11.63,14.66,14.66,0,0,1-.29,2,4.17,4.17,0,0,0-.1.64c0,.06,0,.08,0,.08A5.89,5.89,0,0,0,72.43,97a7.85,7.85,0,0,1,1.06-1.67,1.4,1.4,0,0,1,1-.48.82.82,0,0,1,.71.4,3.49,3.49,0,0,1,.4,1.46,8.53,8.53,0,0,0,.25,1.5c.07.2.19.3.35.3a1,1,0,0,0,.38-.11l.06,0c.14,0,.21.08.21.25a.65.65,0,0,1-.29.45,1,1,0,0,1-.69.24.73.73,0,0,1-.64-.33,4.38,4.38,0,0,1-.36-1.76C74.79,96.25,74.6,95.77,74.31,95.77Z"/><path d="M81.5,97.87c0,.33-.3.73-.89,1.2a2.85,2.85,0,0,1-1.81.7,1.58,1.58,0,0,1-1.22-.46,1.87,1.87,0,0,1-.43-1.3,4.35,4.35,0,0,1,.95-2.65,2.62,2.62,0,0,1,2.06-1.26.8.8,0,0,1,.83.81,2,2,0,0,1-.74,1.44,9.73,9.73,0,0,1-2,1.36.39.39,0,0,0-.26.34.88.88,0,0,0,.24.65.92.92,0,0,0,.69.24,3.08,3.08,0,0,0,2.15-1.16c.1-.11.18-.16.24-.16S81.5,97.7,81.5,97.87Zm-3.4-.76q2.07-1.23,2.07-2c0-.2-.09-.29-.26-.29a1.5,1.5,0,0,0-1,.65A3.74,3.74,0,0,0,78.1,97.11Z"/><path d="M21,172.12a6,6,0,0,0-.24,1,8,8,0,0,0-.16,1.36l.63-.08.92-.1a5.89,5.89,0,0,0,.62-.14,2.75,2.75,0,0,1,.54-.11c.35,0,.52.14.52.43q0,.08-.15.21a1,1,0,0,1-.39.18L22.1,175a13.17,13.17,0,0,0-1.36.2c-.14,0-.23.09-.25.14a2.48,2.48,0,0,0-.09.63c0,.38,0,.69,0,.93l0,.54q0,.45-.33.45a.55.55,0,0,1-.37-.15.53.53,0,0,1-.17-.41A37.62,37.62,0,0,1,20,173c.08-.51.12-.79.12-.82a1.14,1.14,0,0,0-.05-.26,1.11,1.11,0,0,1-.08-.3.38.38,0,0,1,.14-.25.33.33,0,0,1,.25-.14l.58.06a9.58,9.58,0,0,0,1-.09c.83-.09,1.4-.14,1.71-.14a1.07,1.07,0,0,1,.58.12c.11.08.17.16.17.24a.52.52,0,0,1-.14.36.43.43,0,0,1-.31.15h-.16a4.06,4.06,0,0,0-.73-.08c-.31,0-.72,0-1.22.08A2.52,2.52,0,0,0,21,172.12Z"/><path d="M28.42,176c0,.3-.26.66-.79,1.08a2.64,2.64,0,0,1-1.64.64,1.39,1.39,0,0,1-1.09-.42,1.65,1.65,0,0,1-.39-1.17,4,4,0,0,1,.85-2.39,2.39,2.39,0,0,1,1.86-1.13.69.69,0,0,1,.53.21.73.73,0,0,1,.21.52,1.79,1.79,0,0,1-.66,1.3,8.43,8.43,0,0,1-1.78,1.22.34.34,0,0,0-.22.3.82.82,0,0,0,.21.59.85.85,0,0,0,.62.22,2.75,2.75,0,0,0,1.93-1.05c.1-.09.17-.14.22-.14S28.42,175.84,28.42,176Zm-3.05-.68c1.24-.74,1.86-1.34,1.86-1.78q0-.27-.24-.27c-.27,0-.57.2-.91.6A3.24,3.24,0,0,0,25.37,175.31Z"/><path d="M32.49,175.66a5.45,5.45,0,0,1-1.25,1.46,2,2,0,0,1-1.21.51.81.81,0,0,1-.68-.33,1.45,1.45,0,0,1-.24-.87,3.77,3.77,0,0,1,.9-2.28A2.51,2.51,0,0,1,32,173a1.2,1.2,0,0,1,.85.39l.61-2.87a.6.6,0,0,1,.25-.4.7.7,0,0,1,.27-.1c.21,0,.31.18.31.55a5.5,5.5,0,0,1-.2.72,21.06,21.06,0,0,0-.61,2.37,12.07,12.07,0,0,0-.29,2.26c0,.59.13.88.39.88a1,1,0,0,0,.51-.16.37.37,0,0,1,.2-.08c.1,0,.14.06.14.19s-.13.32-.39.51a1.31,1.31,0,0,1-.81.3c-.48,0-.72-.47-.72-1.4C32.47,176,32.48,175.82,32.49,175.66Zm-.58-2a1.89,1.89,0,0,0-1.41,1,3.16,3.16,0,0,0-.7,1.78c0,.37.13.55.37.55a1.48,1.48,0,0,0,.83-.36,4.23,4.23,0,0,0,1-1.15,2.49,2.49,0,0,0,.52-1.18.62.62,0,0,0-.18-.4A.54.54,0,0,0,31.91,173.61Z"/><path d="M39.05,176c0,.3-.26.66-.79,1.08a2.64,2.64,0,0,1-1.64.64,1.39,1.39,0,0,1-1.09-.42,1.65,1.65,0,0,1-.39-1.17,4,4,0,0,1,.85-2.39,2.39,2.39,0,0,1,1.86-1.13.73.73,0,0,1,.54.21.77.77,0,0,1,.2.52,1.79,1.79,0,0,1-.66,1.3,8.43,8.43,0,0,1-1.78,1.22.34.34,0,0,0-.22.3.82.82,0,0,0,.21.59.85.85,0,0,0,.62.22,2.75,2.75,0,0,0,1.93-1.05c.1-.09.17-.14.22-.14S39.05,175.84,39.05,176Zm-3-.68c1.24-.74,1.86-1.34,1.86-1.78q0-.27-.24-.27c-.27,0-.57.2-.91.6A3.24,3.24,0,0,0,36,175.31Z"/><path d="M41.51,170c.21,0,.31.14.31.41a8.44,8.44,0,0,1-.38,1.71,13.32,13.32,0,0,0-.37,1.88,13,13,0,0,0-.13,1.61,11.36,11.36,0,0,0,.09,1.44c0,.1,0,.16,0,.2a.54.54,0,0,1-.15.38.43.43,0,0,1-.32.16c-.16,0-.26-.1-.32-.29a3.54,3.54,0,0,1-.09-.94,22.79,22.79,0,0,1,.35-3.64,12.4,12.4,0,0,1,.56-2.55C41.22,170.16,41.36,170,41.51,170Z"/><path d="M44.33,173.05c.3,0,.59-.05.86-.09a5.73,5.73,0,0,1,.65,0,.93.93,0,0,1,.43.06c.06,0,.08.11.08.22s-.16.36-.49.38-.82.07-1.18.11a1.93,1.93,0,0,0-.57.12,7.25,7.25,0,0,0-.27,1.05,7.66,7.66,0,0,0-.22,1.29,1.19,1.19,0,0,0,.12.65.47.47,0,0,0,.39.16,1.94,1.94,0,0,0,1-.57.73.73,0,0,1,.4-.23.18.18,0,0,1,.19.2c0,.21-.21.48-.61.82a1.92,1.92,0,0,1-1.25.5c-.71,0-1.06-.41-1.06-1.25a6.69,6.69,0,0,1,.22-1.4,8.74,8.74,0,0,0,.21-1.13c0-.05,0-.07-.1-.07l-.46,0c-.37,0-.56-.15-.56-.45s.08-.25.26-.25h.9a.19.19,0,0,0,.16-.09,1.86,1.86,0,0,0,.21-.56c.09-.32.17-.63.24-.94s.21-.46.42-.46a.35.35,0,0,1,.29.13.42.42,0,0,1,.11.25s-.06.25-.16.62Z"/><path d="M49.73,175.88a5.53,5.53,0,0,1-1.22,1.24,2,2,0,0,1-1.11.41.74.74,0,0,1-.58-.28,1.12,1.12,0,0,1-.25-.74,4.13,4.13,0,0,1,1-2.48,2.79,2.79,0,0,1,2-1.34.58.58,0,0,1,.55.42.19.19,0,0,0,.18.14c.23,0,.35.09.35.28a2,2,0,0,1,0,.37,11.61,11.61,0,0,0-.24,1.83c0,.71.13,1.13.4,1.27a.31.31,0,0,1,.2.26c0,.09-.07.18-.19.28a.64.64,0,0,1-.37.13c-.22,0-.41-.15-.56-.46A3.32,3.32,0,0,1,49.73,175.88Zm-.27-2.47c-.39,0-.84.36-1.35,1.09a3.4,3.4,0,0,0-.77,1.8c0,.34.11.5.33.5s.77-.32,1.34-1a2.86,2.86,0,0,0,.86-1.79C49.87,173.62,49.73,173.41,49.46,173.41Zm-.73-2-.13-.09-.28-.2c-.47-.36-.71-.62-.71-.78s0-.13.14-.2A.48.48,0,0,1,48,170s.12.06.25.17.29.26.48.43.44.39.76.64a3.09,3.09,0,0,1,.55.49.4.4,0,0,1,.08.22.4.4,0,0,1-.11.27.33.33,0,0,1-.25.12s-.1,0-.22-.16Z"/><path d="M25.08,234.89a.91.91,0,0,1,.17-.43.38.38,0,0,1,.31-.18c.24,0,.41.29.5.87a26,26,0,0,0,1.67,4.37c.11-.19.23-.39.36-.59.59-.91,1-1.61,1.25-2.09,1-1.9,1.69-2.85,2-2.85s.33.12.33.37a.21.21,0,0,1,0,.12l-.29.42c-.58.83-1.13,1.7-1.66,2.6-.41.7-.76,1.27-1,1.69a4.69,4.69,0,0,0-.54,1,.48.48,0,0,1-.25.28,1,1,0,0,1-.49.11c-.08,0-.25-.37-.53-1.13q-.18-.49-1.23-3.15C25.26,235.39,25.08,234.91,25.08,234.89Z"/><path d="M34.24,239A5.3,5.3,0,0,1,33,240.22a2,2,0,0,1-1.11.41.74.74,0,0,1-.58-.28,1.12,1.12,0,0,1-.25-.74,4.13,4.13,0,0,1,1-2.48,2.77,2.77,0,0,1,2-1.34.59.59,0,0,1,.55.42.19.19,0,0,0,.18.14c.23,0,.35.09.35.28a2,2,0,0,1,0,.37,11.61,11.61,0,0,0-.24,1.83c0,.71.13,1.13.4,1.27a.31.31,0,0,1,.2.26c0,.09-.07.18-.19.28a.64.64,0,0,1-.37.13c-.22,0-.41-.15-.56-.46A3.3,3.3,0,0,1,34.24,239ZM34,236.51q-.58,0-1.35,1.08a3.37,3.37,0,0,0-.77,1.81c0,.34.11.5.33.5s.77-.32,1.34-1a2.86,2.86,0,0,0,.86-1.79C34.39,236.72,34.25,236.51,34,236.51Z"/><path d="M38.1,233.14c.21,0,.32.14.32.41a9.26,9.26,0,0,1-.38,1.71,13.56,13.56,0,0,0-.38,1.88,15.34,15.34,0,0,0-.13,1.61,11.36,11.36,0,0,0,.09,1.44.92.92,0,0,1,0,.2.52.52,0,0,1-.15.38.41.41,0,0,1-.31.16c-.16,0-.27-.1-.33-.29a3.49,3.49,0,0,1-.09-.94,23.07,23.07,0,0,1,.36-3.65,11.71,11.71,0,0,1,.56-2.54C37.82,233.26,38,233.14,38.1,233.14Z"/><path d="M42.24,238.67a5.89,5.89,0,0,1-1.15,1.46,1.71,1.71,0,0,1-1.09.52.8.8,0,0,1-.59-.34,1.52,1.52,0,0,1-.31-1,8,8,0,0,1,.28-1.69,6.17,6.17,0,0,0,.23-1.32A.43.43,0,0,1,40,236a.35.35,0,0,1,.3.13.4.4,0,0,1,.11.27,2.59,2.59,0,0,1-.22.87,5.72,5.72,0,0,0-.41,1.9c0,.48.12.72.34.72s.64-.24,1.08-.73a6,6,0,0,0,1.13-2,3.55,3.55,0,0,1,.3-.67.38.38,0,0,1,.32-.16c.2,0,.3.13.3.4a2.18,2.18,0,0,1-.09.32,7.07,7.07,0,0,0-.26,1.82,1.83,1.83,0,0,0,.34,1.33c.12.11.17.19.17.26a.28.28,0,0,1-.17.23.77.77,0,0,1-.33.1c-.2,0-.37-.16-.49-.46a3.65,3.65,0,0,1-.19-1.35v-.29Z"/><path d="M46.42,236.15c.3,0,.58-.05.85-.09a5.76,5.76,0,0,1,.66,0,.91.91,0,0,1,.42.06.24.24,0,0,1,.09.22c0,.23-.17.36-.5.38l-1.17.11a2.06,2.06,0,0,0-.58.12,6.63,6.63,0,0,0-.26,1.05,7.92,7.92,0,0,0-.23,1.29,1.09,1.09,0,0,0,.13.65.47.47,0,0,0,.38.16,1.94,1.94,0,0,0,1-.57.76.76,0,0,1,.4-.23c.13,0,.19.07.19.2s-.2.49-.61.82a1.9,1.9,0,0,1-1.24.5c-.71,0-1.07-.41-1.07-1.25a7.45,7.45,0,0,1,.22-1.4,7.83,7.83,0,0,0,.22-1.13c0-.05,0-.07-.11-.07l-.46,0c-.37,0-.56-.15-.56-.45s.09-.25.26-.25h.91a.21.21,0,0,0,.16-.09,1.86,1.86,0,0,0,.21-.56c.09-.32.17-.63.24-.94s.21-.46.41-.46a.37.37,0,0,1,.3.13.4.4,0,0,1,.1.25,4.75,4.75,0,0,1-.16.62Z"/><path d="M51.81,239a5.32,5.32,0,0,1-1.22,1.24,2,2,0,0,1-1.1.41.76.76,0,0,1-.59-.28,1.12,1.12,0,0,1-.24-.74,4.11,4.11,0,0,1,1-2.48,2.79,2.79,0,0,1,2.05-1.34.58.58,0,0,1,.55.42.19.19,0,0,0,.18.14c.24,0,.35.09.35.28a2,2,0,0,1,0,.37,11.61,11.61,0,0,0-.24,1.83c0,.71.14,1.13.41,1.27a.3.3,0,0,1,.19.26c0,.09-.06.18-.19.28a.61.61,0,0,1-.36.13c-.23,0-.41-.15-.56-.46A3.13,3.13,0,0,1,51.81,239Zm-.27-2.47c-.39,0-.83.36-1.35,1.08a3.45,3.45,0,0,0-.77,1.81c0,.34.11.5.34.5s.77-.32,1.34-1a2.84,2.84,0,0,0,.85-1.79C52,236.72,51.82,236.51,51.54,236.51Z"/><path d="M57.86,240.53l-.22-.1a2.35,2.35,0,0,0-1-.2,8.9,8.9,0,0,0-1.28.15,2.5,2.5,0,0,0-1.22.45.7.7,0,0,1-.47.2.75.75,0,0,1-.3-.08.27.27,0,0,1-.18-.21q.21-.24.57-.6a41.91,41.91,0,0,0,3-3.34s-.06,0-.14,0a7.61,7.61,0,0,0-1,.11,5.39,5.39,0,0,1-.71,0c-.6,0-.9-.16-.9-.47s.13-.36.4-.36a.17.17,0,0,1,.08,0,2,2,0,0,0,.77.13,9.74,9.74,0,0,0,1.34-.1l.17,0,.23,0a2.31,2.31,0,0,1,.4,0,.62.62,0,0,1,.31.08.22.22,0,0,1,.13.25v0a16.57,16.57,0,0,1-2.33,2.76,3.65,3.65,0,0,0-.57.68s0,0,.08,0l.62-.12a8.92,8.92,0,0,1,1.57-.22q.84,0,.84.51A.64.64,0,0,1,57.86,240.53Z"/><path d="M59.49,239.61a3.62,3.62,0,0,0,.09.75.32.32,0,0,1,0,.13s-.05.12-.14.2a.45.45,0,0,1-.31.13c-.29,0-.43-.26-.43-.78a14.68,14.68,0,0,1,.34-2.56,7.52,7.52,0,0,0,.11-.75,1,1,0,0,1,.1-.48.33.33,0,0,1,.29-.19.54.54,0,0,1,.35.11.3.3,0,0,1,.13.24,1.35,1.35,0,0,1-.06.34,15.71,15.71,0,0,0-.41,1.67A8.05,8.05,0,0,0,59.49,239.61Zm.58-4.91c-.06,0-.11-.07-.14-.2s0-.09,0-.14a1.29,1.29,0,0,1-.12-.49.49.49,0,0,1,.21-.36.69.69,0,0,1,.46-.18.6.6,0,0,1,.29.09c.1.07.16.13.16.2a2.13,2.13,0,0,1-.11.49.73.73,0,0,1-.35.47A.84.84,0,0,1,60.07,234.7Z"/><path d="M62.54,240.8a1.25,1.25,0,0,1-1-.46,1.67,1.67,0,0,1-.39-1.13,3.88,3.88,0,0,1,.77-2.23,2.18,2.18,0,0,1,1.82-1.1,1.39,1.39,0,0,1,1.14.54,2,2,0,0,1,.44,1.29,3.09,3.09,0,0,1-.9,2.12A2.59,2.59,0,0,1,62.54,240.8Zm-.61-1.7a1.34,1.34,0,0,0,.18.73.59.59,0,0,0,.5.28,1.85,1.85,0,0,0,1.31-.72,2.31,2.31,0,0,0,.66-1.6,1.43,1.43,0,0,0-.25-.88.82.82,0,0,0-.68-.33,1.45,1.45,0,0,0-1.22.87A3.23,3.23,0,0,0,61.93,239.1Z"/><path d="M69.33,237.2a.72.72,0,0,0-.49.3,8.08,8.08,0,0,0-.83,1.34,8.75,8.75,0,0,1-.94,1.59.61.61,0,0,1-.35.2.45.45,0,0,1-.52-.51,3.15,3.15,0,0,1,.07-.59,15.78,15.78,0,0,0,.24-2.8.69.69,0,0,1,.14-.37q.15-.21.27-.21a.39.39,0,0,1,.33.14,1.23,1.23,0,0,1,.09.57,11.85,11.85,0,0,1-.26,1.83,4.12,4.12,0,0,0-.09.58s0,.07,0,.07a5.11,5.11,0,0,0,.61-1.05,7,7,0,0,1,1-1.51,1.24,1.24,0,0,1,.91-.43.74.74,0,0,1,.64.36,3.13,3.13,0,0,1,.37,1.31,7.42,7.42,0,0,0,.22,1.36.33.33,0,0,0,.31.26.82.82,0,0,0,.35-.1h0c.12,0,.19.07.19.22a.6.6,0,0,1-.26.41,1,1,0,0,1-.63.22.65.65,0,0,1-.57-.3,4.21,4.21,0,0,1-.33-1.59C69.77,237.63,69.6,237.2,69.33,237.2Z"/><path d="M76.07,239.09c0,.3-.26.66-.79,1.08a2.64,2.64,0,0,1-1.64.64,1.41,1.41,0,0,1-1.09-.42,1.65,1.65,0,0,1-.38-1.17,4,4,0,0,1,.84-2.39,2.39,2.39,0,0,1,1.86-1.13.73.73,0,0,1,.54.21.77.77,0,0,1,.2.52,1.79,1.79,0,0,1-.66,1.3A8.6,8.6,0,0,1,73.18,239c-.16.08-.23.18-.23.3a.82.82,0,0,0,.21.59.81.81,0,0,0,.62.22A2.74,2.74,0,0,0,75.71,239c.1-.09.17-.14.22-.14S76.07,238.94,76.07,239.09Zm-3-.68c1.24-.74,1.86-1.34,1.86-1.78q0-.27-.24-.27c-.27,0-.57.2-.91.6A3.35,3.35,0,0,0,73,238.41Z"/><path d="M39.56,249.47a6.13,6.13,0,0,1-1.15,1.46,1.71,1.71,0,0,1-1.1.52.82.82,0,0,1-.59-.34,1.52,1.52,0,0,1-.3-1,7.41,7.41,0,0,1,.28-1.69,6.9,6.9,0,0,0,.23-1.32.43.43,0,0,1,.4-.26.38.38,0,0,1,.3.13.4.4,0,0,1,.11.27,2.86,2.86,0,0,1-.22.87,5.72,5.72,0,0,0-.41,1.9c0,.48.11.72.34.72s.64-.24,1.08-.73a6,6,0,0,0,1.13-2,2.58,2.58,0,0,1,.3-.67.36.36,0,0,1,.32-.16c.2,0,.29.13.29.39a1.47,1.47,0,0,1-.08.33,7.07,7.07,0,0,0-.26,1.82,1.83,1.83,0,0,0,.34,1.33.42.42,0,0,1,.17.26c0,.08-.06.16-.18.22a.65.65,0,0,1-.32.11c-.2,0-.37-.16-.5-.46a3.91,3.91,0,0,1-.18-1.35v-.29Z"/><path d="M43.73,247c.31,0,.59,0,.86-.09a5.76,5.76,0,0,1,.66,0,.91.91,0,0,1,.42.06.24.24,0,0,1,.09.22c0,.23-.17.36-.5.38s-.82.07-1.17.11a2.06,2.06,0,0,0-.58.12,7.32,7.32,0,0,0-.27,1,7.71,7.71,0,0,0-.22,1.3,1.09,1.09,0,0,0,.13.65.47.47,0,0,0,.38.16,1.94,1.94,0,0,0,1-.57.73.73,0,0,1,.4-.23.18.18,0,0,1,.19.2c0,.21-.21.49-.61.82a1.92,1.92,0,0,1-1.25.5c-.71,0-1.06-.41-1.06-1.25a6.69,6.69,0,0,1,.22-1.4,8.46,8.46,0,0,0,.21-1.14s0-.06-.1-.06l-.46,0c-.37,0-.56-.15-.56-.45s.09-.25.26-.25h.9a.21.21,0,0,0,.17-.09,2.39,2.39,0,0,0,.2-.56c.09-.32.17-.63.24-.94s.21-.46.42-.46a.35.35,0,0,1,.29.13.42.42,0,0,1,.11.25s-.06.25-.16.62Z"/><path d="M49.93,249.89c0,.3-.27.66-.8,1.08a2.61,2.61,0,0,1-1.63.64,1.42,1.42,0,0,1-1.1-.42A1.7,1.7,0,0,1,46,250a3.93,3.93,0,0,1,.85-2.39,2.36,2.36,0,0,1,1.85-1.13.72.72,0,0,1,.75.73,1.79,1.79,0,0,1-.66,1.3A9,9,0,0,1,47,249.75a.36.36,0,0,0-.23.3.75.75,0,0,0,.84.81,2.75,2.75,0,0,0,1.93-1.05.4.4,0,0,1,.22-.14C49.88,249.67,49.93,249.74,49.93,249.89Zm-3.06-.68c1.24-.74,1.87-1.34,1.87-1.78q0-.27-.24-.27a1.33,1.33,0,0,0-.91.6A3.36,3.36,0,0,0,46.87,249.21Z"/><path d="M53.84,248a.74.74,0,0,0-.5.3,8.08,8.08,0,0,0-.83,1.34,8.75,8.75,0,0,1-.94,1.59.58.58,0,0,1-.35.19c-.35,0-.52-.16-.52-.5a3.15,3.15,0,0,1,.07-.59,15.78,15.78,0,0,0,.24-2.8.69.69,0,0,1,.14-.37q.15-.21.27-.21a.37.37,0,0,1,.33.14,1.2,1.2,0,0,1,.1.57,12.34,12.34,0,0,1-.27,1.83,3.57,3.57,0,0,0-.08.58s0,.07,0,.07a5.11,5.11,0,0,0,.61-1,7.38,7.38,0,0,1,1-1.51,1.24,1.24,0,0,1,.91-.43.76.76,0,0,1,.65.36,3.31,3.31,0,0,1,.36,1.31,8.06,8.06,0,0,0,.22,1.35c.07.18.17.27.32.27a.78.78,0,0,0,.34-.1H56c.13,0,.19.07.19.22a.62.62,0,0,1-.26.41,1,1,0,0,1-.62.21.65.65,0,0,1-.58-.29,4.28,4.28,0,0,1-.32-1.59C54.27,248.43,54.1,248,53.84,248Z"/><path d="M58.6,247c.3,0,.59,0,.85-.09a6,6,0,0,1,.66,0,.85.85,0,0,1,.42.06.24.24,0,0,1,.09.22c0,.23-.16.36-.49.38s-.82.07-1.18.11a2.18,2.18,0,0,0-.58.12s-.11.38-.26,1a8.16,8.16,0,0,0-.23,1.3,1.17,1.17,0,0,0,.13.65.48.48,0,0,0,.38.16,1.88,1.88,0,0,0,1-.57.8.8,0,0,1,.4-.23c.13,0,.19.07.19.2s-.2.49-.6.82a1.94,1.94,0,0,1-1.25.5c-.71,0-1.06-.41-1.06-1.25a6.69,6.69,0,0,1,.22-1.4,8.46,8.46,0,0,0,.21-1.14s0-.06-.1-.06l-.46,0c-.38,0-.56-.15-.56-.45s.08-.25.26-.25h.9a.19.19,0,0,0,.16-.09,1.86,1.86,0,0,0,.21-.56c.09-.32.17-.63.24-.94s.21-.46.41-.46a.35.35,0,0,1,.3.13.4.4,0,0,1,.1.25,5.79,5.79,0,0,1-.15.62Z"/><path d="M64.79,249.89c0,.3-.26.66-.79,1.08a2.62,2.62,0,0,1-1.64.64,1.41,1.41,0,0,1-1.09-.42,1.65,1.65,0,0,1-.38-1.17,4,4,0,0,1,.84-2.39,2.39,2.39,0,0,1,1.86-1.13.72.72,0,0,1,.75.73,1.81,1.81,0,0,1-.67,1.3,8.6,8.6,0,0,1-1.77,1.22c-.16.08-.23.18-.23.3a.82.82,0,0,0,.21.59.81.81,0,0,0,.62.22,2.74,2.74,0,0,0,1.93-1.05c.1-.09.17-.14.22-.14S64.79,249.74,64.79,249.89Zm-3.05-.68c1.24-.74,1.86-1.34,1.86-1.78q0-.27-.24-.27a1.37,1.37,0,0,0-.91.6A3.35,3.35,0,0,0,61.74,249.21Z"/><path d="M142.84,210.28a.41.41,0,0,1,0,.22,1,1,0,0,1,0,.29l.06.18a6.5,6.5,0,0,0,.28.85c.12.3.23.62.35,1a15.67,15.67,0,0,0,.81,2,4.66,4.66,0,0,0,.78,1.18,2.24,2.24,0,0,1,.27.3.31.31,0,0,1,.06.19.44.44,0,0,1-.13.33.42.42,0,0,1-.31.13c-.38,0-.83-.59-1.36-1.77a2.56,2.56,0,0,0-.39-.7,6.14,6.14,0,0,0-.91.13,9.9,9.9,0,0,0-1.27.3,1.83,1.83,0,0,1-.42.1.37.37,0,0,1-.23-.11l-.05,0q-.09,0-.42.57c-.35.63-.57,1-.66,1.13a.39.39,0,0,1-.31.18.46.46,0,0,1-.28-.13.41.41,0,0,1-.17-.29.75.75,0,0,1,.16-.38l.64-1a27.58,27.58,0,0,0,1.47-2.42,21.37,21.37,0,0,1,1.2-2.12c.17-.22.3-.32.39-.32A.59.59,0,0,1,142.84,210.28Zm.27,3.5c-.11-.24-.26-.67-.46-1.29s-.35-1.07-.41-1.21q-.24.51-.75,1.44l-.79,1.51a1.18,1.18,0,0,1,.49-.11,5.26,5.26,0,0,0,.52-.08C142.51,213.88,143,213.79,143.11,213.78Z"/><path d="M147.45,216.82a1.32,1.32,0,0,1-1-.37,1.49,1.49,0,0,1-.35-1.06A4.18,4.18,0,0,1,147,213c.6-.85,1.17-1.27,1.69-1.27a.72.72,0,0,1,.61.38,1.47,1.47,0,0,1,.26.81.88.88,0,0,1-.11.45c-.08.13-.15.19-.23.19s-.29-.17-.36-.52-.19-.55-.34-.55q-.47,0-1.08,1.08a3.9,3.9,0,0,0-.63,1.84c0,.5.28.75.85.75a2.85,2.85,0,0,0,1.52-.61,1,1,0,0,1,.45-.22c.1,0,.15.06.15.17s-.26.51-.78.85A2.92,2.92,0,0,1,147.45,216.82Z"/><path d="M152,216.82a1.32,1.32,0,0,1-1-.37,1.54,1.54,0,0,1-.35-1.06,4.18,4.18,0,0,1,.91-2.42c.6-.85,1.17-1.27,1.69-1.27a.71.71,0,0,1,.61.38,1.47,1.47,0,0,1,.26.81.88.88,0,0,1-.11.45c-.08.13-.15.19-.23.19s-.29-.17-.36-.52-.19-.55-.34-.55q-.47,0-1.08,1.08a3.9,3.9,0,0,0-.63,1.84c0,.5.29.75.85.75a2.85,2.85,0,0,0,1.52-.61,1.09,1.09,0,0,1,.45-.22c.1,0,.15.06.15.17s-.26.51-.78.85A2.92,2.92,0,0,1,152,216.82Z"/><path d="M156.66,216.79a1.25,1.25,0,0,1-1-.45,1.71,1.71,0,0,1-.4-1.13A3.91,3.91,0,0,1,156,213a2.2,2.2,0,0,1,1.82-1.1,1.39,1.39,0,0,1,1.14.54,2,2,0,0,1,.44,1.29,3.08,3.08,0,0,1-.9,2.12A2.58,2.58,0,0,1,156.66,216.79Zm-.61-1.7a1.34,1.34,0,0,0,.18.73.59.59,0,0,0,.5.28,1.83,1.83,0,0,0,1.31-.72,2.31,2.31,0,0,0,.66-1.6,1.38,1.38,0,0,0-.25-.87.79.79,0,0,0-.68-.34,1.43,1.43,0,0,0-1.21.87A3.28,3.28,0,0,0,156.05,215.09Z"/><path d="M163.57,214.66a6.42,6.42,0,0,1-1.15,1.47,1.76,1.76,0,0,1-1.1.51.82.82,0,0,1-.59-.34,1.52,1.52,0,0,1-.3-1,7.41,7.41,0,0,1,.28-1.69,6.9,6.9,0,0,0,.23-1.32.42.42,0,0,1,.4-.26.35.35,0,0,1,.29.13.39.39,0,0,1,.11.27,2.72,2.72,0,0,1-.21.87,5.72,5.72,0,0,0-.41,1.9q0,.72.33.72c.29,0,.65-.24,1.09-.73a6.06,6.06,0,0,0,1.13-2,2.76,2.76,0,0,1,.3-.67.36.36,0,0,1,.31-.16c.2,0,.3.13.3.4a2.61,2.61,0,0,1-.08.32,6.72,6.72,0,0,0-.26,1.82,1.87,1.87,0,0,0,.33,1.33c.12.11.18.2.18.26s-.06.16-.18.23a.74.74,0,0,1-.32.1c-.21,0-.37-.15-.5-.46a3.8,3.8,0,0,1-.19-1.35v-.14A.76.76,0,0,1,163.57,214.66Z"/><path d="M169,213.19a.72.72,0,0,0-.5.3,8.08,8.08,0,0,0-.83,1.34,8.75,8.75,0,0,1-.94,1.59.61.61,0,0,1-.35.2c-.35,0-.52-.17-.52-.5a3.33,3.33,0,0,1,.07-.6,15.78,15.78,0,0,0,.24-2.8.69.69,0,0,1,.14-.37q.15-.21.27-.21a.38.38,0,0,1,.33.14,1.2,1.2,0,0,1,.1.57,12.17,12.17,0,0,1-.27,1.83,4.12,4.12,0,0,0-.09.58c0,.05,0,.07,0,.07a5.11,5.11,0,0,0,.61-1.05,7.24,7.24,0,0,1,1-1.5,1.25,1.25,0,0,1,.91-.44.76.76,0,0,1,.65.36,3.32,3.32,0,0,1,.36,1.32,7.42,7.42,0,0,0,.22,1.35c.07.17.17.26.31.26a.9.9,0,0,0,.35-.09.06.06,0,0,1,.05,0c.13,0,.19.07.19.22a.6.6,0,0,1-.26.41,1,1,0,0,1-.62.22.65.65,0,0,1-.58-.3,4.19,4.19,0,0,1-.33-1.58C169.38,213.62,169.21,213.19,169,213.19Z"/><path d="M173.71,212.14l.85-.08a6.45,6.45,0,0,1,.66-.05.91.91,0,0,1,.42.06.25.25,0,0,1,.09.22c0,.24-.16.36-.5.38s-.81.07-1.17.12a1.88,1.88,0,0,0-.58.11s-.11.38-.26,1a8,8,0,0,0-.23,1.3,1.15,1.15,0,0,0,.13.64.45.45,0,0,0,.38.16,1.88,1.88,0,0,0,1.05-.57.8.8,0,0,1,.4-.23c.13,0,.19.07.19.2s-.2.49-.61.82a1.91,1.91,0,0,1-1.24.51c-.71,0-1.07-.42-1.07-1.26a7.45,7.45,0,0,1,.22-1.4,7.83,7.83,0,0,0,.22-1.13c0-.05,0-.07-.11-.07l-.45,0q-.57,0-.57-.45c0-.17.09-.25.26-.25h.91a.21.21,0,0,0,.16-.09,1.86,1.86,0,0,0,.21-.56c.09-.31.17-.63.24-.94s.21-.46.41-.46a.35.35,0,0,1,.3.13.4.4,0,0,1,.1.25,5.11,5.11,0,0,1-.16.63Z"/><path d="M275.36,244.25c.11,0,.17.07.17.21s-.16.36-.49.63a3.71,3.71,0,0,1-1.13.65,3.12,3.12,0,0,1-1.17.25,2.24,2.24,0,0,1-1.42-.52,1.82,1.82,0,0,1-.64-1.49,5.14,5.14,0,0,1,1.54-3.46,4.18,4.18,0,0,1,2.95-1.69,1.15,1.15,0,0,1,.85.33,1.07,1.07,0,0,1,.32.76,3.52,3.52,0,0,1,0,.64.62.62,0,0,1-.28.39.69.69,0,0,1-.37.16.23.23,0,0,1-.18-.09.32.32,0,0,1-.07-.23,2.15,2.15,0,0,1,.07-.42,2.45,2.45,0,0,0,.08-.48c0-.29-.13-.44-.39-.44a2.7,2.7,0,0,0-1.51.69,6.22,6.22,0,0,0-1.51,1.77,3.93,3.93,0,0,0-.63,2,1.43,1.43,0,0,0,.36,1,1.29,1.29,0,0,0,1,.4,3.07,3.07,0,0,0,.93-.19,4.35,4.35,0,0,0,1-.51A1.84,1.84,0,0,1,275.36,244.25Z"/><path d="M279.84,244a5.3,5.3,0,0,1-1.21,1.24,2,2,0,0,1-1.11.41.74.74,0,0,1-.58-.28,1.07,1.07,0,0,1-.25-.74,4.17,4.17,0,0,1,1-2.48,2.8,2.8,0,0,1,2.06-1.34.59.59,0,0,1,.55.42.17.17,0,0,0,.18.14c.23,0,.35.09.35.28a2.24,2.24,0,0,1-.05.37,12.56,12.56,0,0,0-.23,1.83c0,.71.13,1.13.4,1.27a.3.3,0,0,1,.19.26.39.39,0,0,1-.18.28.64.64,0,0,1-.37.13c-.22,0-.41-.15-.56-.46A3.3,3.3,0,0,1,279.84,244Zm-.26-2.47q-.58,0-1.35,1.08a3.37,3.37,0,0,0-.77,1.81c0,.34.11.5.33.5s.77-.32,1.34-1a2.86,2.86,0,0,0,.86-1.79C280,241.72,279.85,241.51,279.58,241.51Z"/><path d="M283.7,238.14c.21,0,.32.14.32.41a9.26,9.26,0,0,1-.38,1.71,12.24,12.24,0,0,0-.38,1.88,13,13,0,0,0-.13,1.61,11.36,11.36,0,0,0,.09,1.44c0,.1,0,.16,0,.2a.52.52,0,0,1-.15.38.42.42,0,0,1-.32.16c-.15,0-.26-.1-.32-.29a3.49,3.49,0,0,1-.09-.94,24.14,24.14,0,0,1,.35-3.65,12.1,12.1,0,0,1,.57-2.54C283.42,238.26,283.56,238.14,283.7,238.14Z"/><path d="M286.28,238.14c.21,0,.31.14.31.41a8.44,8.44,0,0,1-.38,1.71,12.27,12.27,0,0,0-.37,1.88,13,13,0,0,0-.13,1.61,11.36,11.36,0,0,0,.09,1.44c0,.1,0,.16,0,.2a.52.52,0,0,1-.15.38.43.43,0,0,1-.32.16c-.16,0-.26-.1-.32-.29a3.49,3.49,0,0,1-.09-.94,22.9,22.9,0,0,1,.35-3.65,12.41,12.41,0,0,1,.56-2.54C286,238.26,286.13,238.14,286.28,238.14Z"/><path d="M292.11,245.83a1.28,1.28,0,0,1-1-.38,1.46,1.46,0,0,1-.35-1.06,4.15,4.15,0,0,1,.91-2.41c.6-.85,1.17-1.28,1.69-1.28a.74.74,0,0,1,.61.39,1.44,1.44,0,0,1,.26.81.91.91,0,0,1-.11.45c-.08.12-.15.19-.23.19s-.29-.18-.36-.52-.19-.55-.34-.55c-.31,0-.67.36-1.09,1.08a4,4,0,0,0-.62,1.84c0,.49.28.74.85.74a2.82,2.82,0,0,0,1.52-.6.93.93,0,0,1,.45-.22c.1,0,.15.06.15.17s-.26.51-.78.84A2.85,2.85,0,0,1,292.11,245.83Z"/><path d="M299.24,244.09c0,.3-.27.66-.8,1.08a2.61,2.61,0,0,1-1.63.64,1.42,1.42,0,0,1-1.1-.42,1.7,1.7,0,0,1-.38-1.17,3.93,3.93,0,0,1,.85-2.39A2.36,2.36,0,0,1,298,240.7a.72.72,0,0,1,.75.73,1.79,1.79,0,0,1-.66,1.3,9,9,0,0,1-1.78,1.22.36.36,0,0,0-.23.3.75.75,0,0,0,.84.81,2.75,2.75,0,0,0,1.93-1.05.4.4,0,0,1,.22-.14C299.19,243.87,299.24,243.94,299.24,244.09Zm-3.06-.68c1.24-.74,1.86-1.34,1.86-1.78,0-.18-.07-.27-.23-.27a1.33,1.33,0,0,0-.91.6A3.36,3.36,0,0,0,296.18,243.41Z"/><path d="M303.15,242.2a.74.74,0,0,0-.5.3,8.08,8.08,0,0,0-.83,1.34,8.75,8.75,0,0,1-.94,1.59.61.61,0,0,1-.35.2.45.45,0,0,1-.52-.51,3.15,3.15,0,0,1,.07-.59,15.78,15.78,0,0,0,.24-2.8.69.69,0,0,1,.14-.37q.15-.21.27-.21a.37.37,0,0,1,.33.14,1.2,1.2,0,0,1,.1.57,12.34,12.34,0,0,1-.27,1.83,4.12,4.12,0,0,0-.09.58s0,.07,0,.07a5.11,5.11,0,0,0,.61-1.05,7.38,7.38,0,0,1,1-1.51,1.24,1.24,0,0,1,.91-.43.76.76,0,0,1,.65.36,3.31,3.31,0,0,1,.36,1.31,8.49,8.49,0,0,0,.22,1.36c.07.17.17.26.32.26a.78.78,0,0,0,.34-.1h.05c.13,0,.19.07.19.22a.6.6,0,0,1-.26.41,1,1,0,0,1-.62.22.67.67,0,0,1-.58-.3,4.28,4.28,0,0,1-.32-1.59C303.58,242.63,303.41,242.2,303.15,242.2Z"/><path d="M307.91,241.15c.3,0,.59-.05.85-.09a6,6,0,0,1,.66,0,.85.85,0,0,1,.42.06.24.24,0,0,1,.09.22c0,.23-.16.36-.49.38s-.82.07-1.18.11a2.18,2.18,0,0,0-.58.12s-.11.38-.26,1.05a7.92,7.92,0,0,0-.23,1.29,1.17,1.17,0,0,0,.13.65.48.48,0,0,0,.38.16,1.88,1.88,0,0,0,1.05-.57.8.8,0,0,1,.4-.23c.13,0,.19.07.19.2s-.2.49-.6.82a1.94,1.94,0,0,1-1.25.5c-.71,0-1.06-.41-1.06-1.25a6.69,6.69,0,0,1,.22-1.4,8.74,8.74,0,0,0,.21-1.13c0-.05,0-.07-.11-.07l-.45,0c-.38,0-.56-.15-.56-.45s.08-.25.26-.25h.9a.19.19,0,0,0,.16-.09,1.86,1.86,0,0,0,.21-.56c.09-.32.17-.63.24-.94s.21-.46.41-.46a.35.35,0,0,1,.3.13.4.4,0,0,1,.1.25,5.79,5.79,0,0,1-.15.62Z"/><path d="M314.1,244.09c0,.3-.26.66-.79,1.08a2.62,2.62,0,0,1-1.64.64,1.41,1.41,0,0,1-1.09-.42,1.65,1.65,0,0,1-.38-1.17,4,4,0,0,1,.84-2.39,2.39,2.39,0,0,1,1.86-1.13.72.72,0,0,1,.75.73,1.81,1.81,0,0,1-.67,1.3,8.6,8.6,0,0,1-1.77,1.22c-.16.08-.23.18-.23.3a.82.82,0,0,0,.21.59.81.81,0,0,0,.62.22,2.74,2.74,0,0,0,1.93-1.05c.1-.09.17-.14.22-.14S314.1,243.94,314.1,244.09Zm-3.05-.68c1.24-.74,1.86-1.34,1.86-1.78q0-.27-.24-.27a1.37,1.37,0,0,0-.91.6A3.35,3.35,0,0,0,311.05,243.41Z"/><path d="M315.91,243.84l.1-.22a8.76,8.76,0,0,1,.55-1.08,6.54,6.54,0,0,1,.56-.74,3.4,3.4,0,0,1,.54-.54,1.69,1.69,0,0,1,.46-.26,1.07,1.07,0,0,1,.39-.07.84.84,0,0,1,.62.23.71.71,0,0,1,.24.54.41.41,0,0,1-.08.24.31.31,0,0,1-.27.11.44.44,0,0,1-.33-.16.47.47,0,0,0-.33-.16c-.31,0-.73.37-1.27,1.1a5.19,5.19,0,0,0-1,2.44.8.8,0,0,1-.17.46.52.52,0,0,1-.35.11c-.14,0-.25-.11-.31-.32a4.47,4.47,0,0,1-.1-1.09c0-.13,0-.44,0-.91a10.71,10.71,0,0,1,.1-1.34c0-.05,0-.18.05-.39a2.49,2.49,0,0,1,.07-.47.59.59,0,0,1,.19-.24.48.48,0,0,1,.31-.12.28.28,0,0,1,.24.11.31.31,0,0,1,.09.22,1.91,1.91,0,0,1-.09.48,3.19,3.19,0,0,0-.12.48c0,.1,0,.2-.05.31a8.3,8.3,0,0,0-.09,1v.28Z"/><path d="M305.81,137.72a.38.38,0,0,1-.05-.22.27.27,0,0,1,.14-.27,2.94,2.94,0,0,1,.85-.08c.59,0,1.11,0,1.58-.06s1.18-.13,2.14-.26a7.82,7.82,0,0,1,1-.07,3.75,3.75,0,0,1,.48,0l.32.06a.26.26,0,0,1,.15.16.45.45,0,0,1,0,.2c0,.2-.07.31-.22.31l-.39,0-.69,0c-.3,0-.66,0-1.09.06s-.66.11-.71.21a14.77,14.77,0,0,0-.23,1.72c-.11,1-.16,1.82-.16,2.33a4,4,0,0,0,.11.83l0,.1a.61.61,0,0,1-.11.35.31.31,0,0,1-.25.16.47.47,0,0,1-.38-.22,2.9,2.9,0,0,1-.15-1.23,36,36,0,0,1,.36-3.74c0-.1,0-.16,0-.16a.14.14,0,0,0-.16-.15c-.18,0-.52,0-1,.07s-.85.07-1.06.07A.85.85,0,0,1,305.81,137.72Z"/><path d="M315.5,141.57c0,.3-.27.66-.8,1.08a2.56,2.56,0,0,1-1.63.64,1.42,1.42,0,0,1-1.1-.42,1.69,1.69,0,0,1-.38-1.16,3.93,3.93,0,0,1,.85-2.4,2.36,2.36,0,0,1,1.85-1.13.73.73,0,0,1,.75.74,1.77,1.77,0,0,1-.66,1.29,9,9,0,0,1-1.78,1.22.36.36,0,0,0-.23.31.81.81,0,0,0,.21.58.82.82,0,0,0,.63.22,2.72,2.72,0,0,0,1.92-1c.1-.09.17-.14.22-.14S315.5,141.42,315.5,141.57Zm-3.06-.68c1.24-.74,1.86-1.33,1.86-1.78,0-.18-.07-.27-.23-.27a1.33,1.33,0,0,0-.91.6A3.42,3.42,0,0,0,312.44,140.89Z"/><path d="M317.3,141.32l.11-.22A7.55,7.55,0,0,1,318,140a7.45,7.45,0,0,1,.55-.74,3,3,0,0,1,.55-.54,1.78,1.78,0,0,1,.45-.26,1.07,1.07,0,0,1,.39-.07.88.88,0,0,1,.62.23.71.71,0,0,1,.24.54.35.35,0,0,1-.08.24.3.3,0,0,1-.26.11.44.44,0,0,1-.34-.16.47.47,0,0,0-.33-.16c-.31,0-.73.37-1.27,1.11a5.21,5.21,0,0,0-1,2.44.8.8,0,0,1-.17.45.51.51,0,0,1-.34.11c-.15,0-.25-.11-.32-.32a4.56,4.56,0,0,1-.09-1.08c0-.14,0-.44,0-.91a12.82,12.82,0,0,1,.1-1.34c0-.06,0-.19.05-.39a2.49,2.49,0,0,1,.07-.48.69.69,0,0,1,.19-.24.48.48,0,0,1,.31-.12.31.31,0,0,1,.25.11.37.37,0,0,1,.08.22,1.91,1.91,0,0,1-.09.48,3.19,3.19,0,0,0-.12.48,1.67,1.67,0,0,1-.05.31,7.14,7.14,0,0,0-.08,1v.28Z"/><path d="M325,143l-.22-.1a2.38,2.38,0,0,0-1.05-.19,10,10,0,0,0-1.27.14,2.46,2.46,0,0,0-1.22.45.65.65,0,0,1-.78.12c-.11-.05-.17-.12-.17-.21s.32-.35.57-.6a41.45,41.45,0,0,0,3-3.34s-.06,0-.14,0a9.94,9.94,0,0,0-1,.11,5.52,5.52,0,0,1-.71.05c-.61,0-.91-.16-.91-.47s.14-.36.4-.36l.09,0a1.92,1.92,0,0,0,.76.13,11.28,11.28,0,0,0,1.34-.09l.18,0,.22,0a2.41,2.41,0,0,1,.41,0,.67.67,0,0,1,.3.08.23.23,0,0,1,.14.25v0a15.38,15.38,0,0,1-2.32,2.76,4.59,4.59,0,0,0-.58.68s0,.05.09.05l.61-.12a8.32,8.32,0,0,1,1.58-.23q.84,0,.84.51A.66.66,0,0,1,325,143Z"/><path d="M329.59,141.57c0,.3-.27.66-.8,1.08a2.54,2.54,0,0,1-1.63.64,1.39,1.39,0,0,1-1.09-.42,1.64,1.64,0,0,1-.39-1.16,3.93,3.93,0,0,1,.85-2.4,2.37,2.37,0,0,1,1.85-1.13.73.73,0,0,1,.75.74,1.77,1.77,0,0,1-.66,1.29,8.7,8.7,0,0,1-1.78,1.22.36.36,0,0,0-.23.31.81.81,0,0,0,.21.58.83.83,0,0,0,.63.22,2.75,2.75,0,0,0,1.93-1c.1-.09.17-.14.22-.14S329.59,141.42,329.59,141.57Zm-3.06-.68c1.25-.74,1.87-1.33,1.87-1.78q0-.27-.24-.27c-.27,0-.57.2-.91.6A3.42,3.42,0,0,0,326.53,140.89Z"/><path d="M335,142.55a19.76,19.76,0,0,0-.4,2.22l-.12.83a.76.76,0,0,1-.17.35q-.12.18-.24.18a.56.56,0,0,1-.31-.14c-.11-.09-.17-.17-.17-.22a3,3,0,0,1,.11-.67,24,24,0,0,0,.8-5.71V139a1,1,0,0,1,.17-.69.5.5,0,0,1,.4-.21c.07,0,.14,0,.2.16a.89.89,0,0,1,.1.47,7.3,7.3,0,0,1-.09,1l-.12.87a7,7,0,0,1,1.39-1.78,2.13,2.13,0,0,1,1.36-.64,1,1,0,0,1,.75.33,1.15,1.15,0,0,1,.31.82,3.74,3.74,0,0,1-1.1,2.61,3.08,3.08,0,0,1-2.14,1.16.59.59,0,0,1-.41-.13A1.45,1.45,0,0,1,335,142.55Zm2.73-3.53c-.41,0-.92.38-1.53,1.16a3.39,3.39,0,0,0-.91,1.8.41.41,0,0,0,.18.31.68.68,0,0,0,.45.15,2.2,2.2,0,0,0,1.45-.93,2.84,2.84,0,0,0,.82-1.83.86.86,0,0,0-.13-.49A.39.39,0,0,0,337.68,139Z"/><path d="M342.89,141.46a5.32,5.32,0,0,1-1.22,1.24,2,2,0,0,1-1.1.42.77.77,0,0,1-.59-.29,1.09,1.09,0,0,1-.24-.73,4.16,4.16,0,0,1,1-2.49,2.79,2.79,0,0,1,2.05-1.34.58.58,0,0,1,.55.43.2.2,0,0,0,.18.14c.23,0,.35.09.35.27a2,2,0,0,1,0,.37,11.9,11.9,0,0,0-.24,1.83c0,.71.13,1.13.4,1.27a.31.31,0,0,1,.2.26.37.37,0,0,1-.19.28.66.66,0,0,1-.37.14c-.22,0-.41-.16-.55-.47A3.13,3.13,0,0,1,342.89,141.46Zm-.27-2.47c-.39,0-.84.36-1.35,1.09a3.4,3.4,0,0,0-.77,1.8q0,.51.33.51c.33,0,.77-.33,1.34-1a2.81,2.81,0,0,0,.86-1.79C343,139.2,342.89,139,342.62,139Z"/><path d="M346.09,141.32a2.22,2.22,0,0,0,.11-.22,7.55,7.55,0,0,1,.55-1.08c.17-.25.35-.5.55-.74a3,3,0,0,1,.55-.54,2.2,2.2,0,0,1,.45-.26,1.15,1.15,0,0,1,.39-.07.9.9,0,0,1,.63.23.71.71,0,0,1,.24.54.36.36,0,0,1-.09.24.29.29,0,0,1-.26.11.45.45,0,0,1-.34-.16.44.44,0,0,0-.33-.16q-.45,0-1.26,1.11a5.23,5.23,0,0,0-1,2.44.8.8,0,0,1-.16.45.54.54,0,0,1-.35.11c-.15,0-.25-.11-.31-.32a4,4,0,0,1-.1-1.08c0-.14,0-.44,0-.91a10.27,10.27,0,0,1,.11-1.34c0-.06,0-.19,0-.39a2.3,2.3,0,0,1,.08-.48.52.52,0,0,1,.19-.24.45.45,0,0,1,.31-.12.29.29,0,0,1,.24.11.37.37,0,0,1,.08.22,1.91,1.91,0,0,1-.09.48,4.4,4.4,0,0,0-.11.48c0,.1,0,.21-.05.31a8.3,8.3,0,0,0-.09,1v.28Z"/><path d="M352,138.63l.86-.08a6.07,6.07,0,0,1,.66-.05.91.91,0,0,1,.42.06.25.25,0,0,1,.09.22c0,.24-.17.36-.5.39s-.82.06-1.17.11a1.88,1.88,0,0,0-.58.11,7.25,7.25,0,0,0-.27,1.05,7.56,7.56,0,0,0-.22,1.3,1.07,1.07,0,0,0,.13.64.44.44,0,0,0,.38.16,1.94,1.94,0,0,0,1.05-.57.73.73,0,0,1,.4-.23.18.18,0,0,1,.19.2c0,.21-.21.49-.61.82a1.94,1.94,0,0,1-1.25.51c-.71,0-1.06-.42-1.06-1.26a6.69,6.69,0,0,1,.22-1.4,8.74,8.74,0,0,0,.21-1.13s0-.07-.1-.07l-.46,0c-.37,0-.56-.15-.56-.45s.09-.25.26-.25h.9a.21.21,0,0,0,.17-.09,2.39,2.39,0,0,0,.2-.56c.09-.31.17-.63.24-.94s.21-.46.42-.46a.35.35,0,0,1,.29.13.42.42,0,0,1,.11.25s-.06.25-.16.63Z"/><path d="M355.24,142.09a3.1,3.1,0,0,0,.1.75.66.66,0,0,1,0,.13c0,.05,0,.12-.14.21a.48.48,0,0,1-.31.12c-.28,0-.43-.26-.43-.78a15.88,15.88,0,0,1,.34-2.56,7.52,7.52,0,0,0,.11-.75,1.09,1.09,0,0,1,.1-.47.33.33,0,0,1,.29-.2.52.52,0,0,1,.35.11.3.3,0,0,1,.13.24,1.41,1.41,0,0,1-.06.35c-.22.77-.35,1.32-.41,1.66A8.05,8.05,0,0,0,355.24,142.09Zm.58-4.91c-.06,0-.11-.07-.14-.2a1.21,1.21,0,0,0-.05-.14,1.29,1.29,0,0,1-.12-.49.49.49,0,0,1,.21-.36.69.69,0,0,1,.46-.18.53.53,0,0,1,.29.1c.11.06.16.13.16.19a2.13,2.13,0,0,1-.11.49.76.76,0,0,1-.34.47A.92.92,0,0,1,355.82,137.18Z"/><path d="M217.28,15.42c.11,0,.17.07.17.21s-.16.36-.49.63a3.8,3.8,0,0,1-1.13.65,3.3,3.3,0,0,1-1.17.24,2.2,2.2,0,0,1-1.41-.51,1.8,1.8,0,0,1-.64-1.49,5.16,5.16,0,0,1,1.53-3.47,4.2,4.2,0,0,1,3-1.68,1.16,1.16,0,0,1,.85.32,1.09,1.09,0,0,1,.32.77,3.32,3.32,0,0,1,0,.63.61.61,0,0,1-.28.4.69.69,0,0,1-.37.16.23.23,0,0,1-.18-.09.36.36,0,0,1-.07-.24,2.41,2.41,0,0,1,.07-.42,2.38,2.38,0,0,0,.08-.47q0-.45-.39-.45a2.68,2.68,0,0,0-1.5.7,5.84,5.84,0,0,0-1.52,1.77,3.93,3.93,0,0,0-.63,2,1.44,1.44,0,0,0,.36,1,1.32,1.32,0,0,0,1,.39,2.79,2.79,0,0,0,.93-.19,3.69,3.69,0,0,0,1-.51A2,2,0,0,1,217.28,15.42Z"/><path d="M220.09,17a1.28,1.28,0,0,1-1-.46,1.67,1.67,0,0,1-.39-1.13,3.94,3.94,0,0,1,.76-2.23,2.19,2.19,0,0,1,1.83-1.1,1.39,1.39,0,0,1,1.14.54,2,2,0,0,1,.44,1.28A3,3,0,0,1,222,16,2.57,2.57,0,0,1,220.09,17Zm-.61-1.7a1.33,1.33,0,0,0,.18.72.57.57,0,0,0,.5.28,1.85,1.85,0,0,0,1.31-.72,2.28,2.28,0,0,0,.66-1.59,1.41,1.41,0,0,0-.25-.88.83.83,0,0,0-.68-.34,1.45,1.45,0,0,0-1.22.87A3.27,3.27,0,0,0,219.48,15.27Z"/><path d="M226.88,13.37a.72.72,0,0,0-.49.3,7.65,7.65,0,0,0-.83,1.34,8.75,8.75,0,0,1-.94,1.59.58.58,0,0,1-.35.19c-.35,0-.52-.17-.52-.5a3.33,3.33,0,0,1,.07-.6,15.62,15.62,0,0,0,.24-2.8.71.71,0,0,1,.14-.37c.1-.13.19-.2.27-.2a.37.37,0,0,1,.33.14,1.17,1.17,0,0,1,.09.57,11.78,11.78,0,0,1-.26,1.82,4.35,4.35,0,0,0-.09.58c0,.05,0,.07,0,.07a5.11,5.11,0,0,0,.61-1.05,6.85,6.85,0,0,1,1-1.5,1.24,1.24,0,0,1,.91-.43.74.74,0,0,1,.64.36,3.08,3.08,0,0,1,.37,1.31,7.42,7.42,0,0,0,.22,1.35c.06.18.17.27.31.27a1,1,0,0,0,.35-.1l.05,0c.12,0,.19.08.19.22a.58.58,0,0,1-.26.41.91.91,0,0,1-.63.22.65.65,0,0,1-.57-.3,4.08,4.08,0,0,1-.33-1.58C227.32,13.8,227.15,13.37,226.88,13.37Z"/><path d="M233,14.93a5.61,5.61,0,0,1-1.25,1.46,2,2,0,0,1-1.21.51.79.79,0,0,1-.67-.33,1.38,1.38,0,0,1-.25-.87,3.77,3.77,0,0,1,.9-2.28,2.51,2.51,0,0,1,1.95-1.17,1.2,1.2,0,0,1,.85.39l.61-2.88a.6.6,0,0,1,.25-.39.56.56,0,0,1,.28-.1q.3,0,.3.54a3.68,3.68,0,0,1-.2.72,21.88,21.88,0,0,0-.61,2.38,12.07,12.07,0,0,0-.29,2.26c0,.59.13.88.39.88a1.08,1.08,0,0,0,.51-.16.3.3,0,0,1,.2-.08c.1,0,.14.06.14.18s-.13.32-.39.52a1.3,1.3,0,0,1-.81.29c-.48,0-.72-.46-.72-1.39C233,15.25,233,15.09,233,14.93Zm-.57-2.06a1.88,1.88,0,0,0-1.42,1,3.11,3.11,0,0,0-.69,1.78c0,.36.12.55.36.55a1.48,1.48,0,0,0,.83-.36,4.39,4.39,0,0,0,1-1.15,2.52,2.52,0,0,0,.52-1.19.58.58,0,0,0-.18-.39A.54.54,0,0,0,232.44,12.87Z"/><path d="M236.65,15.77a3.55,3.55,0,0,0,.09.75.93.93,0,0,1,0,.14c0,.05,0,.12-.15.2a.44.44,0,0,1-.3.12c-.29,0-.43-.26-.43-.78a15.37,15.37,0,0,1,.33-2.55,5.82,5.82,0,0,0,.12-.76,1,1,0,0,1,.1-.47.31.31,0,0,1,.29-.19.56.56,0,0,1,.35.1.31.31,0,0,1,.13.24,1.34,1.34,0,0,1-.06.35,15.69,15.69,0,0,0-.41,1.66A8.15,8.15,0,0,0,236.65,15.77Zm.58-4.91c-.07,0-.11-.06-.15-.19a.74.74,0,0,0,0-.14,1.33,1.33,0,0,1-.12-.5.53.53,0,0,1,.21-.36.69.69,0,0,1,.46-.18.56.56,0,0,1,.29.1c.1.07.15.13.15.19a1.88,1.88,0,0,1-.1.49.74.74,0,0,1-.35.47A.84.84,0,0,1,237.23,10.86Z"/><path d="M239.26,16.8a5.63,5.63,0,0,0-.38-1.32,9.81,9.81,0,0,1-.72-2.76c0-.41.13-.62.41-.62s.4.19.4.56a6,6,0,0,0,0,.69,7,7,0,0,0,.21.89,10.73,10.73,0,0,0,.4,1.21c.07.19.12.34.16.44.06-.09.14-.22.23-.39.52-.86.93-1.53,1.24-2a8.11,8.11,0,0,1,.74-1,1.77,1.77,0,0,1,.43-.39.67.67,0,0,1,.28-.06.34.34,0,0,1,.27.12.48.48,0,0,1,.1.28q0,.21-.36.45a5.12,5.12,0,0,0-1,1.15,21.18,21.18,0,0,0-1.43,2.34q-.39.72-.6.72C239.55,17.09,239.41,17,239.26,16.8Z"/><path d="M244.16,15.77a3,3,0,0,0,.1.75.76.76,0,0,1,0,.14c0,.05,0,.12-.14.2a.48.48,0,0,1-.31.12c-.28,0-.43-.26-.43-.78a15.66,15.66,0,0,1,.34-2.55,7.15,7.15,0,0,0,.11-.76,1.12,1.12,0,0,1,.1-.47.32.32,0,0,1,.29-.19.52.52,0,0,1,.35.1.31.31,0,0,1,.13.24,1.34,1.34,0,0,1-.06.35c-.22.77-.35,1.33-.41,1.66A8.15,8.15,0,0,0,244.16,15.77Zm.58-4.91c-.06,0-.11-.06-.14-.19a.78.78,0,0,0,0-.14,1.33,1.33,0,0,1-.12-.5.53.53,0,0,1,.21-.36.69.69,0,0,1,.46-.18.53.53,0,0,1,.29.1c.11.07.16.13.16.19a2,2,0,0,1-.11.49.73.73,0,0,1-.34.47A.92.92,0,0,1,244.74,10.86Z"/><path d="M248.14,15.74c0-.19-.24-.41-.71-.65a6.65,6.65,0,0,1-1.2-.73.81.81,0,0,1-.32-.61,1.7,1.7,0,0,1,.88-1.45,2.79,2.79,0,0,1,1.43-.58.89.89,0,0,1,.52.12.55.55,0,0,1,.16.43.28.28,0,0,1-.12.23.33.33,0,0,1-.18.1.49.49,0,0,1-.19-.07.62.62,0,0,0-.19-.06,3,3,0,0,0-.89.32c-.45.22-.67.46-.67.73a.57.57,0,0,0,.24.44,3.82,3.82,0,0,0,.85.49,3.17,3.17,0,0,1,.79.51.83.83,0,0,1,.3.64c0,.44-.31.8-.93,1a4.75,4.75,0,0,1-1.77.38c-.47,0-.71-.16-.71-.48a.25.25,0,0,1,.16-.25.76.76,0,0,1,.32-.08,1.1,1.1,0,0,1,.25,0l.24,0a4.13,4.13,0,0,0,1-.16A1.15,1.15,0,0,0,248.14,15.74Z"/><path d="M250.58,15.77a3.61,3.61,0,0,0,.1.75.76.76,0,0,1,0,.14c0,.05,0,.12-.14.2a.48.48,0,0,1-.31.12q-.42,0-.42-.78a15.37,15.37,0,0,1,.33-2.55,5.12,5.12,0,0,0,.11-.76,1.12,1.12,0,0,1,.1-.47.32.32,0,0,1,.29-.19.52.52,0,0,1,.35.1.31.31,0,0,1,.13.24,1.34,1.34,0,0,1-.06.35c-.22.77-.35,1.33-.41,1.66A8.15,8.15,0,0,0,250.58,15.77Zm.58-4.91c-.06,0-.11-.06-.14-.19a.78.78,0,0,0-.05-.14,1.33,1.33,0,0,1-.12-.5.53.53,0,0,1,.21-.36.69.69,0,0,1,.46-.18.51.51,0,0,1,.29.1c.11.07.16.13.16.19a2,2,0,0,1-.11.49.73.73,0,0,1-.34.47A.92.92,0,0,1,251.16,10.86Z"/><path d="M253.63,17a1.26,1.26,0,0,1-1-.46,1.67,1.67,0,0,1-.39-1.13,3.87,3.87,0,0,1,.76-2.23,2.19,2.19,0,0,1,1.82-1.1,1.39,1.39,0,0,1,1.14.54,1.93,1.93,0,0,1,.44,1.28,3.06,3.06,0,0,1-.9,2.12A2.59,2.59,0,0,1,253.63,17Zm-.61-1.7a1.25,1.25,0,0,0,.19.72.56.56,0,0,0,.49.28,1.83,1.83,0,0,0,1.31-.72,2.28,2.28,0,0,0,.66-1.59,1.41,1.41,0,0,0-.25-.88.82.82,0,0,0-.68-.34,1.43,1.43,0,0,0-1.21.87A3.28,3.28,0,0,0,253,15.27Z"/><path d="M260.43,13.37a.74.74,0,0,0-.5.3,7.21,7.21,0,0,0-.82,1.34,9.15,9.15,0,0,1-.95,1.59.58.58,0,0,1-.35.19c-.35,0-.52-.17-.52-.5a3.33,3.33,0,0,1,.07-.6,15.62,15.62,0,0,0,.24-2.8.66.66,0,0,1,.15-.37c.09-.13.18-.2.27-.2a.34.34,0,0,1,.32.14,1,1,0,0,1,.1.57,12.28,12.28,0,0,1-.27,1.82,5.75,5.75,0,0,0-.08.58c0,.05,0,.07,0,.07a4.61,4.61,0,0,0,.61-1.05,7.24,7.24,0,0,1,1-1.5,1.24,1.24,0,0,1,.91-.43.76.76,0,0,1,.65.36,3.26,3.26,0,0,1,.36,1.31,8.5,8.5,0,0,0,.22,1.35c.07.18.17.27.32.27a1,1,0,0,0,.34-.1l.05,0c.13,0,.19.08.19.22a.58.58,0,0,1-.26.41.91.91,0,0,1-.62.22.67.67,0,0,1-.58-.3,4.15,4.15,0,0,1-.32-1.58C260.86,13.8,260.69,13.37,260.43,13.37Z"/><path d="M267.17,15.26c0,.3-.27.66-.8,1.08a2.6,2.6,0,0,1-1.64.63,1.41,1.41,0,0,1-1.09-.42,1.65,1.65,0,0,1-.38-1.16,3.88,3.88,0,0,1,.85-2.39A2.33,2.33,0,0,1,266,11.87a.73.73,0,0,1,.54.21.72.72,0,0,1,.21.52,1.79,1.79,0,0,1-.67,1.3,8.6,8.6,0,0,1-1.77,1.21.36.36,0,0,0-.23.31.79.79,0,0,0,.21.58.82.82,0,0,0,.63.22,2.72,2.72,0,0,0,1.92-1c.1-.1.17-.15.22-.15S267.17,15.11,267.17,15.26Zm-3.06-.69c1.24-.74,1.86-1.33,1.86-1.78,0-.17-.08-.26-.23-.26a1.38,1.38,0,0,0-.92.59A3.58,3.58,0,0,0,264.11,14.57Z"/><path d="M230.4,25.73a5.61,5.61,0,0,1-1.25,1.46,2,2,0,0,1-1.21.51.82.82,0,0,1-.68-.33,1.45,1.45,0,0,1-.24-.87,3.77,3.77,0,0,1,.9-2.28,2.51,2.51,0,0,1,2-1.17,1.2,1.2,0,0,1,.85.39l.61-2.88a.6.6,0,0,1,.25-.39.56.56,0,0,1,.27-.1c.21,0,.31.18.31.54a3.68,3.68,0,0,1-.2.72,21.88,21.88,0,0,0-.61,2.38,12.07,12.07,0,0,0-.29,2.26c0,.59.13.88.39.88a1.08,1.08,0,0,0,.51-.16.3.3,0,0,1,.2-.08c.1,0,.14.06.14.18s-.13.32-.39.52a1.3,1.3,0,0,1-.81.29c-.48,0-.72-.46-.72-1.39C230.38,26.05,230.39,25.89,230.4,25.73Zm-.58-2.06a1.88,1.88,0,0,0-1.41,1,3.11,3.11,0,0,0-.69,1.78c0,.36.12.55.36.55a1.48,1.48,0,0,0,.83-.36,4.39,4.39,0,0,0,1-1.15,2.52,2.52,0,0,0,.52-1.19.58.58,0,0,0-.18-.39A.55.55,0,0,0,229.82,23.67Z"/><path d="M234.09,25.8a1.64,1.64,0,0,0,.1-.22,9.29,9.29,0,0,1,.55-1.07,8,8,0,0,1,.55-.75,4.54,4.54,0,0,1,.55-.54,1.74,1.74,0,0,1,.45-.25,1.18,1.18,0,0,1,.39-.08.89.89,0,0,1,.63.23.75.75,0,0,1,.24.54.38.38,0,0,1-.09.25.3.3,0,0,1-.26.11.51.51,0,0,1-.34-.16.45.45,0,0,0-.32-.17c-.31,0-.73.37-1.27,1.11a5.15,5.15,0,0,0-1,2.44.74.74,0,0,1-.17.45.48.48,0,0,1-.35.11c-.14,0-.25-.1-.31-.32a3.88,3.88,0,0,1-.1-1.08c0-.14,0-.44,0-.91a12.64,12.64,0,0,1,.11-1.34c0-.06,0-.19,0-.39a2.17,2.17,0,0,1,.08-.47.54.54,0,0,1,.19-.25.51.51,0,0,1,.31-.11.27.27,0,0,1,.24.1.32.32,0,0,1,.08.22,1.81,1.81,0,0,1-.08.49,3.19,3.19,0,0,0-.12.48c0,.1,0,.2,0,.31a8,8,0,0,0-.09,1v.28Z"/><path d="M239.07,27.77a1.28,1.28,0,0,1-1-.46,1.67,1.67,0,0,1-.39-1.13,3.92,3.92,0,0,1,.76-2.23,2.19,2.19,0,0,1,1.83-1.1,1.39,1.39,0,0,1,1.14.54,2,2,0,0,1,.44,1.28,3,3,0,0,1-.91,2.12A2.57,2.57,0,0,1,239.07,27.77Zm-.61-1.7a1.33,1.33,0,0,0,.18.72.57.57,0,0,0,.5.28,1.85,1.85,0,0,0,1.31-.72,2.28,2.28,0,0,0,.66-1.59,1.41,1.41,0,0,0-.25-.88.83.83,0,0,0-.68-.34,1.45,1.45,0,0,0-1.22.87A3.27,3.27,0,0,0,238.46,26.07Z"/><path d="M245.86,24.17a.72.72,0,0,0-.49.3,7.65,7.65,0,0,0-.83,1.34,8.75,8.75,0,0,1-.94,1.59.58.58,0,0,1-.35.19c-.35,0-.52-.17-.52-.5a3.33,3.33,0,0,1,.07-.6,15.7,15.7,0,0,0,.24-2.8.71.71,0,0,1,.14-.37c.1-.13.19-.2.27-.2a.37.37,0,0,1,.33.14,1.17,1.17,0,0,1,.09.57,11.78,11.78,0,0,1-.26,1.82,4.35,4.35,0,0,0-.09.58c0,.05,0,.07,0,.07a5.75,5.75,0,0,0,.61-1.05,6.85,6.85,0,0,1,1-1.5,1.24,1.24,0,0,1,.91-.43.74.74,0,0,1,.64.36,3.08,3.08,0,0,1,.37,1.31,7.42,7.42,0,0,0,.22,1.35c.06.18.17.27.31.27a1,1,0,0,0,.35-.1l0,0c.12,0,.19.08.19.22a.58.58,0,0,1-.26.41.91.91,0,0,1-.63.22.65.65,0,0,1-.57-.3,4.08,4.08,0,0,1-.33-1.58C246.3,24.6,246.13,24.17,245.86,24.17Z"/><path d="M252.6,26.06c0,.3-.26.66-.79,1.08a2.62,2.62,0,0,1-1.64.63,1.39,1.39,0,0,1-1.09-.42,1.61,1.61,0,0,1-.39-1.16,4,4,0,0,1,.85-2.39,2.36,2.36,0,0,1,1.86-1.13.73.73,0,0,1,.54.21.75.75,0,0,1,.2.52,1.81,1.81,0,0,1-.66,1.3,8.6,8.6,0,0,1-1.77,1.21.34.34,0,0,0-.23.31.79.79,0,0,0,.21.58.81.81,0,0,0,.62.22,2.74,2.74,0,0,0,1.93-1c.1-.1.17-.15.22-.15S252.6,25.91,252.6,26.06Zm-3-.69c1.24-.74,1.86-1.33,1.86-1.78,0-.17-.08-.26-.24-.26a1.37,1.37,0,0,0-.91.59A3.35,3.35,0,0,0,249.55,25.37Z"/><path d="M185.58,115.34c0-.47-.12-.76-.37-.87a2.32,2.32,0,0,0-.93-.16,4.68,4.68,0,0,0-2.06.45q-.93.45-.93,1.08a1,1,0,0,0,.41.78,5.71,5.71,0,0,0,1.8.74,6.68,6.68,0,0,1,1.9.8,1.19,1.19,0,0,1,.57,1,1.87,1.87,0,0,1-.79,1.27,5.48,5.48,0,0,1-1.91,1,6.26,6.26,0,0,1-1.89.35,2.57,2.57,0,0,1-1-.15c-.22-.1-.33-.23-.33-.38a1,1,0,0,1,.1-.4c.06-.15.13-.23.2-.23a.6.6,0,0,1,.22,0,3.28,3.28,0,0,0,1.14.21,4.75,4.75,0,0,0,2.15-.59q1.14-.6,1.14-1.11c0-.15-.12-.29-.35-.42a11,11,0,0,0-1.75-.65,4.82,4.82,0,0,1-2.15-1.08,1.82,1.82,0,0,1-.4-1.1,2,2,0,0,1,1.29-1.8,5.57,5.57,0,0,1,2.68-.69,2.68,2.68,0,0,1,1.43.32c.33.21.5.44.5.69a2.06,2.06,0,0,1-.11.53A.52.52,0,0,1,185.58,115.34Z"/><path d="M188.35,120.71a22.35,22.35,0,0,0-.49,2.72l-.15,1a1.19,1.19,0,0,1-.2.43q-.16.21-.3.21a.66.66,0,0,1-.38-.17q-.21-.16-.21-.27a3.57,3.57,0,0,1,.14-.82,29.71,29.71,0,0,0,1-7v-.45a1.27,1.27,0,0,1,.21-.84.62.62,0,0,1,.49-.27c.09,0,.17.07.25.21a1.1,1.1,0,0,1,.12.57,9.21,9.21,0,0,1-.11,1.26c-.09.62-.14,1-.15,1.07a8.69,8.69,0,0,1,1.7-2.18,2.64,2.64,0,0,1,1.67-.78,1.18,1.18,0,0,1,.91.4,1.46,1.46,0,0,1,.38,1,4.52,4.52,0,0,1-1.35,3.18,3.73,3.73,0,0,1-2.61,1.43.76.76,0,0,1-.51-.16A1.81,1.81,0,0,1,188.35,120.71Zm3.34-4.32c-.51,0-1.13.47-1.88,1.42a4.21,4.21,0,0,0-1.12,2.21.53.53,0,0,0,.22.37.87.87,0,0,0,.56.18,2.64,2.64,0,0,0,1.77-1.13,3.41,3.41,0,0,0,1-2.23,1,1,0,0,0-.16-.61A.47.47,0,0,0,191.69,116.39Z"/><path d="M199,119.52c0,.36-.32.8-1,1.32a3.19,3.19,0,0,1-2,.77,1.72,1.72,0,0,1-1.33-.51,2,2,0,0,1-.47-1.42,4.77,4.77,0,0,1,1-2.92,2.89,2.89,0,0,1,2.27-1.39.87.87,0,0,1,.91.9,2.17,2.17,0,0,1-.81,1.58,10.19,10.19,0,0,1-2.17,1.49c-.18.1-.28.22-.28.37a.92.92,0,0,0,1,1,3.37,3.37,0,0,0,2.36-1.28q.18-.18.27-.18C199,119.24,199,119.33,199,119.52Zm-3.73-.84c1.52-.9,2.28-1.63,2.28-2.18,0-.21-.1-.32-.29-.32s-.7.24-1.12.73A4.2,4.2,0,0,0,195.29,118.68Z"/><path d="M204,119.11a6.57,6.57,0,0,1-1.53,1.78,2.49,2.49,0,0,1-1.48.63,1,1,0,0,1-.83-.4,1.74,1.74,0,0,1-.3-1.07,4.61,4.61,0,0,1,1.1-2.78,3.06,3.06,0,0,1,2.39-1.43,1.46,1.46,0,0,1,1,.47l.76-3.51a.68.68,0,0,1,.29-.48.81.81,0,0,1,.34-.12c.25,0,.38.22.38.66a5.21,5.21,0,0,1-.25.88,25.35,25.35,0,0,0-.74,2.91,13.93,13.93,0,0,0-.35,2.76c0,.72.15,1.07.46,1.07a1.14,1.14,0,0,0,.63-.2.45.45,0,0,1,.25-.09c.12,0,.17.07.17.22s-.16.4-.48.64a1.63,1.63,0,0,1-1,.36c-.59,0-.89-.57-.89-1.71C204,119.51,204,119.31,204,119.11Zm-.71-2.51a2.28,2.28,0,0,0-1.72,1.18,3.79,3.79,0,0,0-.86,2.18c0,.44.15.67.45.67a1.88,1.88,0,0,0,1-.44,5.4,5.4,0,0,0,1.23-1.41,3.11,3.11,0,0,0,.63-1.44.78.78,0,0,0-.21-.49A.69.69,0,0,0,203.29,116.6Z"/><path d="M208.44,120.14a4,4,0,0,0,.12.92,1.37,1.37,0,0,1,0,.16c0,.07-.06.15-.18.25a.54.54,0,0,1-.38.16c-.34,0-.52-.32-.52-1a19.13,19.13,0,0,1,.41-3.13,6.19,6.19,0,0,0,.14-.91,1.16,1.16,0,0,1,.13-.58.37.37,0,0,1,.34-.24.66.66,0,0,1,.44.13.41.41,0,0,1,.16.29,1.73,1.73,0,0,1-.08.43,18.12,18.12,0,0,0-.5,2A10,10,0,0,0,208.44,120.14Zm.71-6c-.08,0-.13-.09-.17-.25l-.06-.16a1.63,1.63,0,0,1-.15-.61.63.63,0,0,1,.26-.44.83.83,0,0,1,.56-.22.67.67,0,0,1,.35.12c.13.08.2.16.2.23a2.51,2.51,0,0,1-.14.61.88.88,0,0,1-.41.57A1.12,1.12,0,0,1,209.15,114.15Z"/><path d="M215.16,121.28l-.27-.13a2.86,2.86,0,0,0-1.28-.24,11.09,11.09,0,0,0-1.56.18,3,3,0,0,0-1.48.55.89.89,0,0,1-.58.24,1,1,0,0,1-.37-.09.33.33,0,0,1-.22-.27l.7-.73a50.37,50.37,0,0,0,3.68-4.08s-.07,0-.17,0a11.48,11.48,0,0,0-1.21.14,6.15,6.15,0,0,1-.87.06c-.74,0-1.1-.19-1.1-.58s.16-.44.48-.44l.11,0a2.35,2.35,0,0,0,.93.16,12.79,12.79,0,0,0,1.64-.12l.21,0,.28,0a2.77,2.77,0,0,1,.49-.06.94.94,0,0,1,.38.1.28.28,0,0,1,.16.31v0a18.75,18.75,0,0,1-2.84,3.38,5.55,5.55,0,0,0-.7.83s.05,0,.11,0l.75-.14a9.4,9.4,0,0,1,1.92-.28c.69,0,1,.21,1,.63A.81.81,0,0,1,215.16,121.28Z"/><path d="M217.15,120.14a4.59,4.59,0,0,0,.11.92.53.53,0,0,1,0,.16c0,.07-.05.15-.17.25a.56.56,0,0,1-.38.16c-.35,0-.52-.32-.52-1a19.13,19.13,0,0,1,.41-3.13,8.16,8.16,0,0,0,.14-.91,1.28,1.28,0,0,1,.12-.58.38.38,0,0,1,.35-.24.63.63,0,0,1,.43.13.38.38,0,0,1,.16.29,1.64,1.64,0,0,1-.07.43,18.12,18.12,0,0,0-.5,2A8.75,8.75,0,0,0,217.15,120.14Zm.7-6c-.07,0-.13-.09-.17-.25a.64.64,0,0,0-.06-.16,1.81,1.81,0,0,1-.14-.61.61.61,0,0,1,.25-.44.83.83,0,0,1,.57-.22.7.7,0,0,1,.35.12c.13.08.19.16.19.23a2.35,2.35,0,0,1-.13.61.92.92,0,0,1-.42.57A1.07,1.07,0,0,1,217.85,114.15Z"/><path d="M220.87,121.61a1.53,1.53,0,0,1-1.21-.56,2.07,2.07,0,0,1-.48-1.38,4.73,4.73,0,0,1,.93-2.73,2.69,2.69,0,0,1,2.23-1.35,1.72,1.72,0,0,1,1.4.66,2.46,2.46,0,0,1,.53,1.57,3.74,3.74,0,0,1-1.1,2.59A3.16,3.16,0,0,1,220.87,121.61Zm-.74-2.08a1.57,1.57,0,0,0,.22.88.72.72,0,0,0,.61.35,2.26,2.26,0,0,0,1.6-.88,2.83,2.83,0,0,0,.81-1.95,1.75,1.75,0,0,0-.31-1.08,1,1,0,0,0-.83-.41,1.76,1.76,0,0,0-1.48,1.06A4,4,0,0,0,220.13,119.53Z"/><path d="M229.18,117.21a.91.91,0,0,0-.61.36,10.55,10.55,0,0,0-1,1.64,9.79,9.79,0,0,1-1.15,1.94.7.7,0,0,1-.43.24c-.42,0-.63-.2-.63-.61a5.11,5.11,0,0,1,.08-.73,18.76,18.76,0,0,0,.3-3.42.87.87,0,0,1,.17-.46c.12-.16.23-.25.33-.25a.46.46,0,0,1,.4.17,1.38,1.38,0,0,1,.12.7,16,16,0,0,1-.32,2.23,4.18,4.18,0,0,0-.11.71c0,.06,0,.09,0,.09a6.09,6.09,0,0,0,.75-1.29,8.56,8.56,0,0,1,1.17-1.83,1.52,1.52,0,0,1,1.12-.54.92.92,0,0,1,.78.44,3.86,3.86,0,0,1,.45,1.61,9.42,9.42,0,0,0,.27,1.65c.08.22.21.33.38.33a1,1,0,0,0,.42-.12l.07,0c.15,0,.23.09.23.27a.74.74,0,0,1-.32.5,1.13,1.13,0,0,1-.76.26.81.81,0,0,1-.71-.36,5,5,0,0,1-.39-1.93C229.72,117.73,229.5,117.21,229.18,117.21Z"/><path d="M237.42,119.52c0,.36-.33.8-1,1.32a3.23,3.23,0,0,1-2,.77,1.73,1.73,0,0,1-1.34-.51,2,2,0,0,1-.47-1.42,4.79,4.79,0,0,1,1-2.92,2.86,2.86,0,0,1,2.26-1.39.89.89,0,0,1,.92.9,2.17,2.17,0,0,1-.81,1.58,10.46,10.46,0,0,1-2.17,1.49c-.19.1-.28.22-.28.37a1,1,0,0,0,.25.72,1,1,0,0,0,.77.27,3.39,3.39,0,0,0,2.36-1.28c.11-.12.2-.18.26-.18S237.42,119.33,237.42,119.52Zm-3.74-.84c1.52-.9,2.28-1.63,2.28-2.18,0-.21-.1-.32-.29-.32a1.63,1.63,0,0,0-1.11.73A4.1,4.1,0,0,0,233.68,118.68Z"/><path d="M276.86,58.87a5,5,0,0,1-2.92,1.27,1.58,1.58,0,0,1-1.17-.44,1.63,1.63,0,0,1-.44-1.21A4.87,4.87,0,0,1,273.92,55a4.65,4.65,0,0,1,3.29-1.61,1.55,1.55,0,0,1,.8.18.53.53,0,0,1,.3.46,1,1,0,0,1-.18.53c-.13.2-.24.29-.36.29s-.14-.06-.19-.18a1,1,0,0,0-.26-.39.71.71,0,0,0-.45-.11,2.94,2.94,0,0,0-1.72.73,5.77,5.77,0,0,0-1.5,1.67,3.6,3.6,0,0,0-.55,1.83c0,.68.31,1,.94,1a3,3,0,0,0,1-.21,6.39,6.39,0,0,0,1.21-.66,2.12,2.12,0,0,0,.79-.78,4.17,4.17,0,0,0,.22-.91c0-.21.18-.31.45-.31s.45.09.45.27a1.67,1.67,0,0,1-.13.44,5.73,5.73,0,0,0-.32.93c-.07.28-.14.6-.2,1a6.73,6.73,0,0,0-.08.78,3.76,3.76,0,0,0,.08.61.71.71,0,0,1,0,.14.53.53,0,0,1-.11.3.38.38,0,0,1-.29.14.61.61,0,0,1-.37-.14.41.41,0,0,1-.19-.33q0-.15.21-1.26C276.82,59.18,276.85,59,276.86,58.87Z"/><path d="M283.14,58.67c0,.3-.26.66-.79,1.08a2.62,2.62,0,0,1-1.64.63,1.42,1.42,0,0,1-1.09-.41,1.65,1.65,0,0,1-.39-1.17,3.91,3.91,0,0,1,.85-2.39,2.37,2.37,0,0,1,1.86-1.13.72.72,0,0,1,.53.21.73.73,0,0,1,.21.52,1.81,1.81,0,0,1-.66,1.3,8.32,8.32,0,0,1-1.78,1.21.37.37,0,0,0-.23.31.78.78,0,0,0,.22.59.83.83,0,0,0,.62.22,2.75,2.75,0,0,0,1.93-1c.1-.1.17-.14.22-.14S283.14,58.52,283.14,58.67ZM280.08,58c1.25-.73,1.87-1.33,1.87-1.78,0-.17-.08-.26-.24-.26a1.37,1.37,0,0,0-.91.59A3.47,3.47,0,0,0,280.08,58Z"/><path d="M286.27,59.15c0-.19-.24-.4-.71-.65a6.65,6.65,0,0,1-1.2-.73.81.81,0,0,1-.32-.61,1.71,1.71,0,0,1,.88-1.45,2.79,2.79,0,0,1,1.43-.58.81.81,0,0,1,.52.13.51.51,0,0,1,.16.42.28.28,0,0,1-.12.23.33.33,0,0,1-.18.1.62.62,0,0,1-.19-.06.53.53,0,0,0-.18-.07,2.91,2.91,0,0,0-.9.32c-.44.22-.67.46-.67.73a.6.6,0,0,0,.24.45,4.83,4.83,0,0,0,.85.49,2.91,2.91,0,0,1,.79.5.84.84,0,0,1,.3.64q0,.68-.93,1.05a4.75,4.75,0,0,1-1.77.38c-.47,0-.71-.16-.71-.48a.26.26,0,0,1,.16-.25.79.79,0,0,1,.32-.08l.25,0,.24,0a3.67,3.67,0,0,0,1.05-.16A1.15,1.15,0,0,0,286.27,59.15Z"/><path d="M289.66,55.73l.86-.09a5.76,5.76,0,0,1,.66,0,.91.91,0,0,1,.42.06.24.24,0,0,1,.09.22c0,.23-.17.36-.5.38s-.82.06-1.17.11a2.06,2.06,0,0,0-.58.12,7.32,7.32,0,0,0-.27,1,7.71,7.71,0,0,0-.22,1.3,1.11,1.11,0,0,0,.13.65.47.47,0,0,0,.38.16,1.94,1.94,0,0,0,1.05-.57.67.67,0,0,1,.4-.23c.12,0,.19.06.19.2s-.21.48-.61.82a2,2,0,0,1-1.25.5c-.71,0-1.06-.42-1.06-1.25a6.69,6.69,0,0,1,.22-1.4,8.46,8.46,0,0,0,.21-1.14s0-.06-.1-.06l-.46,0c-.37,0-.56-.15-.56-.45a.23.23,0,0,1,.26-.26h.9a.21.21,0,0,0,.17-.08,2.39,2.39,0,0,0,.2-.56c.09-.32.17-.63.24-.94s.21-.46.42-.46a.35.35,0,0,1,.29.13.42.42,0,0,1,.11.24s-.06.25-.16.63Z"/><path d="M292.93,59.18a3.12,3.12,0,0,0,.1.76.62.62,0,0,1,0,.13s0,.12-.14.2a.5.5,0,0,1-.31.13c-.28,0-.43-.26-.43-.79a15.8,15.8,0,0,1,.34-2.55,7.52,7.52,0,0,0,.11-.75,1.14,1.14,0,0,1,.1-.48.32.32,0,0,1,.29-.19.48.48,0,0,1,.35.11.29.29,0,0,1,.13.23,1.34,1.34,0,0,1-.06.35c-.22.78-.35,1.33-.41,1.66A8.15,8.15,0,0,0,292.93,59.18Zm.58-4.9c-.06,0-.11-.07-.14-.2a1.21,1.21,0,0,0-.05-.14,1.29,1.29,0,0,1-.12-.5.5.5,0,0,1,.21-.35.7.7,0,0,1,.46-.19.63.63,0,0,1,.29.1c.11.07.16.13.16.19a2.08,2.08,0,0,1-.11.5.73.73,0,0,1-.34.46A.82.82,0,0,1,293.51,54.28Z"/><path d="M296,60.38a1.23,1.23,0,0,1-1-.46,1.63,1.63,0,0,1-.4-1.13,3.88,3.88,0,0,1,.77-2.23,2.17,2.17,0,0,1,1.82-1.1,1.39,1.39,0,0,1,1.14.54,1.94,1.94,0,0,1,.44,1.29,3.05,3.05,0,0,1-.9,2.11A2.59,2.59,0,0,1,296,60.38Zm-.61-1.7a1.3,1.3,0,0,0,.18.72.58.58,0,0,0,.5.29,1.83,1.83,0,0,0,1.31-.72,2.31,2.31,0,0,0,.66-1.6,1.43,1.43,0,0,0-.25-.88.81.81,0,0,0-.68-.33,1.43,1.43,0,0,0-1.21.86A3.28,3.28,0,0,0,295.37,58.68Z"/><path d="M302.78,56.78a.74.74,0,0,0-.5.3,8.08,8.08,0,0,0-.83,1.34,8.75,8.75,0,0,1-.94,1.59.58.58,0,0,1-.35.19c-.35,0-.52-.16-.52-.5a3.33,3.33,0,0,1,.07-.6,15.58,15.58,0,0,0,.24-2.79.71.71,0,0,1,.14-.38c.1-.13.19-.2.27-.2a.37.37,0,0,1,.33.14,1.14,1.14,0,0,1,.1.57,12.53,12.53,0,0,1-.27,1.83,3.92,3.92,0,0,0-.09.58s0,.07,0,.07a5.11,5.11,0,0,0,.61-1.05,7.1,7.1,0,0,1,1-1.51,1.24,1.24,0,0,1,.91-.43.76.76,0,0,1,.65.36A3.31,3.31,0,0,1,304,57.6a8.06,8.06,0,0,0,.22,1.35c.07.18.17.27.32.27a.78.78,0,0,0,.34-.1l.05,0c.13,0,.19.08.19.22a.62.62,0,0,1-.26.42,1,1,0,0,1-.62.21.67.67,0,0,1-.58-.29,4.28,4.28,0,0,1-.32-1.59C303.21,57.21,303,56.78,302.78,56.78Z"/><path d="M309.51,58.67c0,.3-.26.66-.79,1.08a2.6,2.6,0,0,1-1.64.63A1.44,1.44,0,0,1,306,60a1.7,1.7,0,0,1-.38-1.17,3.91,3.91,0,0,1,.85-2.39,2.36,2.36,0,0,1,1.85-1.13.72.72,0,0,1,.75.73,1.79,1.79,0,0,1-.67,1.3,8.23,8.23,0,0,1-1.77,1.21.37.37,0,0,0-.23.31.82.82,0,0,0,.21.59.85.85,0,0,0,.62.22,2.74,2.74,0,0,0,1.93-1c.1-.1.17-.14.22-.14S309.51,58.52,309.51,58.67ZM306.46,58c1.24-.73,1.86-1.33,1.86-1.78,0-.17-.08-.26-.23-.26a1.38,1.38,0,0,0-.92.59A3.58,3.58,0,0,0,306.46,58Z"/><path d="M317.18,58.34a5.45,5.45,0,0,1-1.25,1.46,2,2,0,0,1-1.21.51.79.79,0,0,1-.67-.33,1.38,1.38,0,0,1-.25-.87,3.77,3.77,0,0,1,.9-2.28,2.51,2.51,0,0,1,1.95-1.17,1.18,1.18,0,0,1,.85.39l.61-2.87a.59.59,0,0,1,.53-.5c.2,0,.31.18.31.55a4.76,4.76,0,0,1-.21.72,23.47,23.47,0,0,0-.61,2.37,11.91,11.91,0,0,0-.28,2.26c0,.59.12.88.38.88a1,1,0,0,0,.51-.16.37.37,0,0,1,.21-.08c.09,0,.14.06.14.18s-.14.33-.4.52a1.31,1.31,0,0,1-.8.3c-.49,0-.73-.47-.73-1.4C317.16,58.66,317.17,58.5,317.18,58.34Zm-.57-2.06a1.88,1.88,0,0,0-1.41,1,3.09,3.09,0,0,0-.7,1.78c0,.37.12.55.36.55a1.54,1.54,0,0,0,.84-.36,4.39,4.39,0,0,0,1-1.15,2.53,2.53,0,0,0,.52-1.18.6.6,0,0,0-.18-.4A.53.53,0,0,0,316.61,56.28Z"/><path d="M320.87,58.42c0-.06.06-.13.11-.22a7.66,7.66,0,0,1,.54-1.08,6.84,6.84,0,0,1,.56-.74,3,3,0,0,1,.55-.54,1.52,1.52,0,0,1,.45-.26,1.07,1.07,0,0,1,.39-.07.84.84,0,0,1,.62.23.71.71,0,0,1,.24.53.41.41,0,0,1-.08.25.33.33,0,0,1-.26.11.44.44,0,0,1-.34-.16.47.47,0,0,0-.33-.16c-.31,0-.73.36-1.27,1.1a5.15,5.15,0,0,0-1,2.44.74.74,0,0,1-.17.45.48.48,0,0,1-.35.11c-.14,0-.24-.1-.31-.32a4.32,4.32,0,0,1-.1-1.08c0-.13,0-.44,0-.91a10.71,10.71,0,0,1,.1-1.34s0-.18.05-.39a2.49,2.49,0,0,1,.07-.47.54.54,0,0,1,.19-.24.48.48,0,0,1,.31-.12.34.34,0,0,1,.25.1.4.4,0,0,1,.08.23,1.91,1.91,0,0,1-.09.48,3.19,3.19,0,0,0-.12.48,1.81,1.81,0,0,1-.05.31,8.28,8.28,0,0,0-.09,1v.29Z"/><path d="M325.85,60.38a1.23,1.23,0,0,1-1-.46,1.63,1.63,0,0,1-.4-1.13,3.88,3.88,0,0,1,.77-2.23,2.16,2.16,0,0,1,1.82-1.1,1.39,1.39,0,0,1,1.14.54,2,2,0,0,1,.44,1.29,3.05,3.05,0,0,1-.9,2.11A2.59,2.59,0,0,1,325.85,60.38Zm-.61-1.7a1.3,1.3,0,0,0,.18.72.58.58,0,0,0,.5.29,1.85,1.85,0,0,0,1.31-.72,2.31,2.31,0,0,0,.66-1.6,1.43,1.43,0,0,0-.25-.88.82.82,0,0,0-.68-.33,1.43,1.43,0,0,0-1.21.86A3.28,3.28,0,0,0,325.24,58.68Z"/><path d="M332.65,56.78a.72.72,0,0,0-.5.3,8.08,8.08,0,0,0-.83,1.34,8.75,8.75,0,0,1-.94,1.59.58.58,0,0,1-.35.19c-.35,0-.52-.16-.52-.5a3.33,3.33,0,0,1,.07-.6,15.58,15.58,0,0,0,.24-2.79.71.71,0,0,1,.14-.38c.1-.13.19-.2.27-.2a.38.38,0,0,1,.33.14,1.14,1.14,0,0,1,.1.57,12.53,12.53,0,0,1-.27,1.83,3.92,3.92,0,0,0-.09.58s0,.07,0,.07a5.11,5.11,0,0,0,.61-1.05,7.1,7.1,0,0,1,1-1.51,1.24,1.24,0,0,1,.91-.43.76.76,0,0,1,.65.36,3.31,3.31,0,0,1,.36,1.31,7.08,7.08,0,0,0,.22,1.35c.07.18.17.27.31.27a.78.78,0,0,0,.35-.1l.05,0c.13,0,.19.08.19.22a.62.62,0,0,1-.26.42,1,1,0,0,1-.62.21.67.67,0,0,1-.58-.29,4.08,4.08,0,0,1-.32-1.59C333.08,57.21,332.91,56.78,332.65,56.78Z"/><path d="M339.38,58.67c0,.3-.26.66-.79,1.08a2.6,2.6,0,0,1-1.64.63,1.44,1.44,0,0,1-1.09-.41,1.65,1.65,0,0,1-.38-1.17,4,4,0,0,1,.84-2.39,2.39,2.39,0,0,1,1.86-1.13.72.72,0,0,1,.75.73,1.79,1.79,0,0,1-.67,1.3,8.23,8.23,0,0,1-1.77,1.21.35.35,0,0,0-.23.31.82.82,0,0,0,.21.59.85.85,0,0,0,.62.22,2.74,2.74,0,0,0,1.93-1c.1-.1.17-.14.22-.14S339.38,58.52,339.38,58.67ZM336.33,58c1.24-.73,1.86-1.33,1.86-1.78,0-.17-.08-.26-.23-.26a1.38,1.38,0,0,0-.92.59A3.58,3.58,0,0,0,336.33,58Z"/><path d="M417.49,22.64a.36.36,0,0,1,0,.21,1,1,0,0,1,0,.29l.05.19c.1.34.2.63.29.85s.23.62.35,1a15.1,15.1,0,0,0,.81,2,4.57,4.57,0,0,0,.78,1.19,1.43,1.43,0,0,1,.27.3.29.29,0,0,1,.06.19.44.44,0,0,1-.13.32.43.43,0,0,1-.31.14c-.38,0-.83-.59-1.36-1.77a2.36,2.36,0,0,0-.39-.7A6.14,6.14,0,0,0,417,27a12,12,0,0,0-1.27.29,1.83,1.83,0,0,1-.42.1.36.36,0,0,1-.23-.1s0,0-.05,0-.2.19-.42.57c-.35.63-.57,1-.66,1.13a.39.39,0,0,1-.31.18.49.49,0,0,1-.28-.14.39.39,0,0,1-.17-.28.72.72,0,0,1,.16-.38l.64-1a26.18,26.18,0,0,0,1.47-2.42,22.77,22.77,0,0,1,1.2-2.12c.17-.21.3-.32.39-.32A.55.55,0,0,1,417.49,22.64Zm.27,3.49a12.45,12.45,0,0,1-.46-1.28c-.21-.67-.35-1.07-.41-1.22-.16.34-.41.82-.75,1.45l-.79,1.51a1.13,1.13,0,0,1,.49-.12,5.26,5.26,0,0,0,.52-.08C417.16,26.23,417.63,26.15,417.76,26.13Z"/><path d="M423.9,25.55a.72.72,0,0,0-.5.3,7.65,7.65,0,0,0-.83,1.34,8.75,8.75,0,0,1-.94,1.59.58.58,0,0,1-.35.19c-.35,0-.52-.16-.52-.5a3.33,3.33,0,0,1,.07-.6,15.62,15.62,0,0,0,.24-2.8.71.71,0,0,1,.14-.37c.1-.13.19-.2.27-.2a.39.39,0,0,1,.33.14,1.17,1.17,0,0,1,.09.57,11.78,11.78,0,0,1-.26,1.82,4.35,4.35,0,0,0-.09.58c0,.05,0,.07,0,.07a5.11,5.11,0,0,0,.61-1.05,7.24,7.24,0,0,1,1-1.5,1.24,1.24,0,0,1,.91-.43.74.74,0,0,1,.64.36,3.08,3.08,0,0,1,.37,1.31,7.42,7.42,0,0,0,.22,1.35c.07.18.17.27.31.27a.82.82,0,0,0,.35-.1l.05,0c.12,0,.19.08.19.22a.58.58,0,0,1-.26.41.91.91,0,0,1-.63.22.66.66,0,0,1-.57-.29,4.21,4.21,0,0,1-.33-1.59Q424.29,25.55,423.9,25.55Z"/><path d="M429.83,27.33a5.51,5.51,0,0,1-1.21,1.24,2.06,2.06,0,0,1-1.11.41.74.74,0,0,1-.58-.28,1.09,1.09,0,0,1-.25-.74,4.22,4.22,0,0,1,1-2.49,2.78,2.78,0,0,1,2.06-1.33.59.59,0,0,1,.55.42.18.18,0,0,0,.18.14c.23,0,.35.09.35.27a2.33,2.33,0,0,1-.05.38,12.63,12.63,0,0,0-.23,1.82c0,.71.13,1.14.4,1.28a.3.3,0,0,1,.19.26A.36.36,0,0,1,431,29a.59.59,0,0,1-.37.14c-.23,0-.41-.15-.56-.46A3.33,3.33,0,0,1,429.83,27.33Zm-.27-2.48c-.38,0-.83.37-1.34,1.09a3.37,3.37,0,0,0-.77,1.81c0,.33.11.5.33.5s.77-.32,1.34-1a2.86,2.86,0,0,0,.86-1.8Q430,24.85,429.56,24.85Z"/><path d="M433.69,21.49c.21,0,.32.13.32.4a9.46,9.46,0,0,1-.38,1.72,11.77,11.77,0,0,0-.38,1.88,12.87,12.87,0,0,0-.13,1.61,11.6,11.6,0,0,0,.09,1.44c0,.09,0,.16,0,.2a.54.54,0,0,1-.15.38.45.45,0,0,1-.32.16c-.15,0-.26-.1-.32-.29a3.54,3.54,0,0,1-.09-.94,24.14,24.14,0,0,1,.35-3.65,11.92,11.92,0,0,1,.57-2.54C433.41,21.61,433.55,21.49,433.69,21.49Z"/><path d="M435.57,28a3.47,3.47,0,0,0,.09.75.93.93,0,0,1,0,.14c0,.05-.05.12-.15.2a.48.48,0,0,1-.31.13c-.28,0-.42-.27-.42-.79a15.37,15.37,0,0,1,.33-2.55,5.82,5.82,0,0,0,.12-.76,1,1,0,0,1,.1-.47.31.31,0,0,1,.28-.19.57.57,0,0,1,.36.1.36.36,0,0,1,.13.24,1.34,1.34,0,0,1-.06.35,13.49,13.49,0,0,0-.41,1.66A7,7,0,0,0,435.57,28Zm.57-4.91c-.06,0-.11-.06-.14-.19a1.21,1.21,0,0,0-.05-.14,1.56,1.56,0,0,1-.12-.5.57.57,0,0,1,.21-.36.71.71,0,0,1,.47-.18.6.6,0,0,1,.28.1c.11.07.16.13.16.19a1.74,1.74,0,0,1-.11.5.7.7,0,0,1-.34.46A.92.92,0,0,1,436.14,23Z"/><path d="M439.54,27.92c0-.19-.23-.41-.7-.65a6.47,6.47,0,0,1-1.21-.73.8.8,0,0,1-.31-.61,1.68,1.68,0,0,1,.87-1.45,2.82,2.82,0,0,1,1.43-.58.89.89,0,0,1,.52.12.52.52,0,0,1,.16.43.28.28,0,0,1-.12.23.28.28,0,0,1-.18.1.55.55,0,0,1-.19-.07.59.59,0,0,0-.18-.06,2.8,2.8,0,0,0-.89.32c-.45.22-.68.46-.68.73a.57.57,0,0,0,.24.44,3.82,3.82,0,0,0,.85.49,3.45,3.45,0,0,1,.8.51.85.85,0,0,1,.29.64c0,.45-.31.8-.92,1a4.75,4.75,0,0,1-1.78.38c-.47,0-.71-.16-.71-.48a.26.26,0,0,1,.16-.25.8.8,0,0,1,.33-.08l.25,0,.23,0a4.06,4.06,0,0,0,1.05-.16A1.15,1.15,0,0,0,439.54,27.92Z"/><path d="M442,28a3.47,3.47,0,0,0,.09.75.93.93,0,0,1,0,.14c0,.05-.05.12-.15.2a.48.48,0,0,1-.31.13c-.28,0-.42-.27-.42-.79a15.37,15.37,0,0,1,.33-2.55,5.82,5.82,0,0,0,.12-.76,1,1,0,0,1,.1-.47.3.3,0,0,1,.28-.19.57.57,0,0,1,.36.1.36.36,0,0,1,.13.24,1.34,1.34,0,0,1-.06.35,13.49,13.49,0,0,0-.41,1.66A7,7,0,0,0,442,28Zm.57-4.91c-.06,0-.11-.06-.14-.19a1.21,1.21,0,0,0-.05-.14,1.33,1.33,0,0,1-.12-.5.57.57,0,0,1,.21-.36.71.71,0,0,1,.47-.18.6.6,0,0,1,.28.1c.11.07.16.13.16.19a1.74,1.74,0,0,1-.11.5.7.7,0,0,1-.34.46A.92.92,0,0,1,442.56,23Z"/><path d="M407.68,39.22a17.4,17.4,0,0,0-.41,2.22l-.12.83a.91.91,0,0,1-.16.35c-.09.11-.17.17-.25.17a.56.56,0,0,1-.31-.14c-.11-.09-.17-.16-.17-.22a3.13,3.13,0,0,1,.11-.67,23.82,23.82,0,0,0,.8-5.7v-.37a1,1,0,0,1,.17-.69.51.51,0,0,1,.4-.22c.07,0,.14.06.2.17a.86.86,0,0,1,.1.47,7.17,7.17,0,0,1-.09,1l-.12.88a7.08,7.08,0,0,1,1.39-1.79,2.21,2.21,0,0,1,1.36-.64,1,1,0,0,1,.75.33,1.17,1.17,0,0,1,.31.83,3.73,3.73,0,0,1-1.1,2.6,3.06,3.06,0,0,1-2.14,1.17.59.59,0,0,1-.41-.13A1.41,1.41,0,0,1,407.68,39.22Zm2.73-3.54c-.42,0-.93.39-1.54,1.16a3.41,3.41,0,0,0-.91,1.81.41.41,0,0,0,.18.3.68.68,0,0,0,.45.15,2.18,2.18,0,0,0,1.45-.93,2.79,2.79,0,0,0,.82-1.82.88.88,0,0,0-.13-.5A.41.41,0,0,0,410.41,35.68Z"/><path d="M413.53,38a1.47,1.47,0,0,0,.11-.22,7.92,7.92,0,0,1,.55-1.07,8,8,0,0,1,.55-.75,3.91,3.91,0,0,1,.55-.54,1.59,1.59,0,0,1,.45-.25,1.09,1.09,0,0,1,.39-.08.83.83,0,0,1,.62.24.69.69,0,0,1,.25.53.38.38,0,0,1-.09.25.32.32,0,0,1-.26.11.45.45,0,0,1-.34-.16.45.45,0,0,0-.33-.17c-.3,0-.73.37-1.26,1.11a5.27,5.27,0,0,0-1,2.44.68.68,0,0,1-.17.45.45.45,0,0,1-.34.11c-.15,0-.25-.1-.31-.32a3.88,3.88,0,0,1-.1-1.08c0-.14,0-.44,0-.91a10.43,10.43,0,0,1,.11-1.34s0-.18,0-.39a2.17,2.17,0,0,1,.08-.47.54.54,0,0,1,.19-.25.49.49,0,0,1,.31-.11.28.28,0,0,1,.24.1.4.4,0,0,1,.08.22,1.9,1.9,0,0,1-.09.49q-.09.34-.12.48a1.76,1.76,0,0,1,0,.31,8,8,0,0,0-.09,1V38Z"/><path d="M421,38.24c0,.3-.27.66-.8,1.08a2.6,2.6,0,0,1-1.63.63,1.42,1.42,0,0,1-1.1-.42,1.65,1.65,0,0,1-.38-1.16A3.91,3.91,0,0,1,418,36a2.33,2.33,0,0,1,1.85-1.13.73.73,0,0,1,.54.21.72.72,0,0,1,.21.52,1.81,1.81,0,0,1-.66,1.3,9,9,0,0,1-1.78,1.21.36.36,0,0,0-.23.31.84.84,0,0,0,.21.59.86.86,0,0,0,.63.22,2.75,2.75,0,0,0,1.93-1.05q.13-.15.21-.15C421,38,421,38.09,421,38.24ZM418,37.55c1.24-.74,1.86-1.33,1.86-1.78,0-.17-.07-.26-.23-.26a1.35,1.35,0,0,0-.91.59A3.47,3.47,0,0,0,418,37.55Z"/><path d="M425.1,37.91a5.59,5.59,0,0,1-1.24,1.46,2.06,2.06,0,0,1-1.22.51.79.79,0,0,1-.67-.33,1.38,1.38,0,0,1-.25-.87,3.77,3.77,0,0,1,.9-2.28,2.53,2.53,0,0,1,1.95-1.17,1.18,1.18,0,0,1,.85.39l.62-2.87a.55.55,0,0,1,.24-.4.59.59,0,0,1,.28-.1c.2,0,.31.18.31.54a4.15,4.15,0,0,1-.21.72,22.1,22.1,0,0,0-.6,2.38,11.28,11.28,0,0,0-.29,2.26c0,.59.13.88.38.88a1,1,0,0,0,.51-.16.31.31,0,0,1,.21-.08c.09,0,.14.06.14.18s-.13.32-.4.52a1.31,1.31,0,0,1-.8.3c-.49,0-.73-.47-.73-1.4C425.08,38.23,425.09,38.07,425.1,37.91Zm-.57-2.06a1.85,1.85,0,0,0-1.41,1,3.06,3.06,0,0,0-.7,1.78c0,.36.12.55.36.55a1.54,1.54,0,0,0,.84-.36,4.78,4.78,0,0,0,1-1.15,2.58,2.58,0,0,0,.51-1.19.64.64,0,0,0-.17-.39A.56.56,0,0,0,424.53,35.85Z"/><path d="M428.74,38.75a3.47,3.47,0,0,0,.09.75.39.39,0,0,1,0,.14s-.05.12-.14.2a.5.5,0,0,1-.31.13c-.28,0-.43-.27-.43-.79a14.6,14.6,0,0,1,.34-2.55,7.15,7.15,0,0,0,.11-.76,1.12,1.12,0,0,1,.1-.47.32.32,0,0,1,.29-.19.52.52,0,0,1,.35.1.32.32,0,0,1,.13.24,1.34,1.34,0,0,1-.06.35c-.22.77-.35,1.33-.41,1.66A8.15,8.15,0,0,0,428.74,38.75Zm.58-4.91c-.06,0-.11-.06-.14-.19a.78.78,0,0,0-.05-.14A1.33,1.33,0,0,1,429,33a.53.53,0,0,1,.21-.36.69.69,0,0,1,.46-.18.63.63,0,0,1,.29.1c.11.07.16.13.16.19a2,2,0,0,1-.11.49.73.73,0,0,1-.34.47A.92.92,0,0,1,429.32,33.84Z"/><path d="M432.29,35.29l.86-.08a5.76,5.76,0,0,1,.66,0,.91.91,0,0,1,.42.06.23.23,0,0,1,.09.21c0,.24-.17.37-.5.39s-.82.06-1.17.11a2.06,2.06,0,0,0-.58.12,7.32,7.32,0,0,0-.27,1,7.71,7.71,0,0,0-.22,1.3,1,1,0,0,0,.13.64.45.45,0,0,0,.38.17,1.94,1.94,0,0,0,1.05-.57.67.67,0,0,1,.4-.23c.12,0,.19.06.19.2s-.21.48-.61.82a2,2,0,0,1-1.25.5c-.71,0-1.06-.42-1.06-1.25a6.69,6.69,0,0,1,.22-1.4,8.46,8.46,0,0,0,.21-1.14s0-.06-.1-.06l-.46,0c-.37,0-.56-.15-.56-.45a.23.23,0,0,1,.26-.26h.9a.25.25,0,0,0,.17-.08,2.61,2.61,0,0,0,.2-.56c.09-.32.17-.63.24-.94s.21-.47.42-.47a.36.36,0,0,1,.29.14.4.4,0,0,1,.11.24s-.06.25-.16.63Z"/><path d="M436.51,35.29l.86-.08a5.73,5.73,0,0,1,.65,0,.93.93,0,0,1,.43.06.26.26,0,0,1,.08.21c0,.24-.16.37-.49.39s-.82.06-1.18.11a1.93,1.93,0,0,0-.57.12,7.32,7.32,0,0,0-.27,1,7.71,7.71,0,0,0-.22,1.3,1.15,1.15,0,0,0,.12.64.48.48,0,0,0,.39.17,1.94,1.94,0,0,0,1.05-.57.67.67,0,0,1,.4-.23c.12,0,.19.06.19.2s-.21.48-.61.82a2,2,0,0,1-1.25.5c-.71,0-1.06-.42-1.06-1.25a6.69,6.69,0,0,1,.22-1.4,8.46,8.46,0,0,0,.21-1.14s0-.06-.1-.06l-.46,0c-.38,0-.56-.15-.56-.45a.23.23,0,0,1,.26-.26h.9a.25.25,0,0,0,.17-.08,2.61,2.61,0,0,0,.2-.56c.09-.32.17-.63.24-.94s.21-.47.42-.47a.36.36,0,0,1,.29.14.4.4,0,0,1,.11.24s-.06.25-.16.63Z"/><path d="M439.78,38.75a3.47,3.47,0,0,0,.09.75.39.39,0,0,1,0,.14s-.05.12-.14.2a.5.5,0,0,1-.31.13c-.28,0-.43-.27-.43-.79a14.6,14.6,0,0,1,.34-2.55,7.15,7.15,0,0,0,.11-.76,1.12,1.12,0,0,1,.1-.47.32.32,0,0,1,.29-.19.52.52,0,0,1,.35.1.32.32,0,0,1,.13.24,1.34,1.34,0,0,1-.06.35,15.69,15.69,0,0,0-.41,1.66A8.15,8.15,0,0,0,439.78,38.75Zm.58-4.91c-.06,0-.11-.06-.14-.19a.78.78,0,0,0-.05-.14,1.33,1.33,0,0,1-.12-.5.53.53,0,0,1,.21-.36.69.69,0,0,1,.46-.18.63.63,0,0,1,.29.1c.1.07.16.13.16.19a2,2,0,0,1-.11.49.73.73,0,0,1-.34.47A.92.92,0,0,1,440.36,33.84Z"/><path d="M442.39,39.78a5.63,5.63,0,0,0-.38-1.32,9.81,9.81,0,0,1-.72-2.76c0-.41.14-.62.41-.62s.41.19.41.56a6,6,0,0,0,0,.69,5.5,5.5,0,0,0,.2.9c.12.43.26.83.4,1.2.07.19.13.34.16.44l.24-.39c.51-.86.92-1.53,1.23-2a7.1,7.1,0,0,1,.75-1,1.62,1.62,0,0,1,.42-.39.71.71,0,0,1,.28-.06.34.34,0,0,1,.27.12.42.42,0,0,1,.1.28q0,.21-.36.45a5.12,5.12,0,0,0-1,1.15,21.28,21.28,0,0,0-1.42,2.34q-.39.72-.6.72C442.68,40.07,442.54,40,442.39,39.78Z"/><path d="M449.42,38.13a5.53,5.53,0,0,1-1.22,1.24,2,2,0,0,1-1.1.41.76.76,0,0,1-.59-.28,1.13,1.13,0,0,1-.24-.74,4.16,4.16,0,0,1,1-2.49,2.77,2.77,0,0,1,2.05-1.33.58.58,0,0,1,.55.42.2.2,0,0,0,.18.14c.24,0,.35.09.35.27a2.12,2.12,0,0,1,0,.38,11.67,11.67,0,0,0-.24,1.82c0,.71.14,1.14.41,1.28a.3.3,0,0,1,.19.26c0,.09-.06.18-.19.27a.57.57,0,0,1-.36.14c-.23,0-.41-.15-.56-.46A3.17,3.17,0,0,1,449.42,38.13Zm-.27-2.48c-.39,0-.84.37-1.35,1.09a3.45,3.45,0,0,0-.77,1.81c0,.33.11.5.34.5s.77-.32,1.34-1a2.84,2.84,0,0,0,.85-1.8C449.56,35.86,449.43,35.65,449.15,35.65Z"/><path d="M412.81,98.64a13.23,13.23,0,0,1,1.88-.21,2.36,2.36,0,0,1,1.49.44,1.37,1.37,0,0,1,.55,1.1,1.77,1.77,0,0,1-.59,1.25,4,4,0,0,1-1.47.92c-.08,0-.11.06-.11.09a4.85,4.85,0,0,0,.91.78,18.73,18.73,0,0,0,1.66,1.17.39.39,0,0,1,.22.35.39.39,0,0,1-.15.28.44.44,0,0,1-.27.14,1.78,1.78,0,0,1-.83-.43c-.38-.29-.77-.61-1.18-1a7.35,7.35,0,0,0-1.48-1.12.94.94,0,0,1-.42-.09.29.29,0,0,1-.12-.27.36.36,0,0,1,.16-.29.59.59,0,0,1,.37-.12,1.25,1.25,0,0,1,.24,0,1.2,1.2,0,0,0,.24,0,2.9,2.9,0,0,0,1.2-.52A1.47,1.47,0,0,0,416,100a.78.78,0,0,0-.38-.64,1.64,1.64,0,0,0-1-.27,6.62,6.62,0,0,0-.88.06,3.28,3.28,0,0,0-.56.11.36.36,0,0,0-.19.22,8.16,8.16,0,0,0-.25,1.17c-.12.65-.21,1.27-.28,1.85s-.1,1-.1,1.28a3,3,0,0,0,0,.55,3.39,3.39,0,0,1,0,.37.49.49,0,0,1-.44.41c-.31,0-.46-.25-.46-.75a23.32,23.32,0,0,1,.62-4.68,1.4,1.4,0,0,1,0-.18.41.41,0,0,0,0-.08A1,1,0,0,1,412,99a.35.35,0,0,1,.16-.29.55.55,0,0,1,.3-.13Z"/><path d="M418.86,103.87a3.63,3.63,0,0,0,.09.76.69.69,0,0,1,0,.13s-.05.12-.14.2a.5.5,0,0,1-.31.13c-.29,0-.43-.26-.43-.79a14.72,14.72,0,0,1,.34-2.55,7.52,7.52,0,0,0,.11-.75,1,1,0,0,1,.1-.48.31.31,0,0,1,.29-.19.49.49,0,0,1,.35.11.29.29,0,0,1,.13.23,1.34,1.34,0,0,1-.06.35,15.69,15.69,0,0,0-.41,1.66A8.15,8.15,0,0,0,418.86,103.87Zm.58-4.91c-.06,0-.11-.06-.14-.19s0-.09-.05-.14a1.33,1.33,0,0,1-.12-.5.5.5,0,0,1,.21-.35.65.65,0,0,1,.46-.19.63.63,0,0,1,.29.1c.1.07.16.13.16.19a2.18,2.18,0,0,1-.11.5.71.71,0,0,1-.35.46A.84.84,0,0,1,419.44,99Z"/><path d="M421.47,104.34a17.7,17.7,0,0,0-.4,2.22l-.13.83a.78.78,0,0,1-.16.35c-.09.11-.17.17-.24.17a.49.49,0,0,1-.31-.14c-.12-.09-.17-.16-.17-.22a2.6,2.6,0,0,1,.11-.67,24.34,24.34,0,0,0,.8-5.7v-.37a1.07,1.07,0,0,1,.16-.69.52.52,0,0,1,.41-.21c.07,0,.13,0,.2.16a1,1,0,0,1,.1.47,7.17,7.17,0,0,1-.09,1c-.08.51-.12.8-.12.88a6.84,6.84,0,0,1,1.39-1.78,2.15,2.15,0,0,1,1.36-.65,1,1,0,0,1,.75.34,1.18,1.18,0,0,1,.31.82,3.73,3.73,0,0,1-1.1,2.6A3.08,3.08,0,0,1,422.2,105a.58.58,0,0,1-.41-.13A1.41,1.41,0,0,1,421.47,104.34Zm2.73-3.54c-.41,0-.92.39-1.53,1.16a3.48,3.48,0,0,0-.92,1.81.43.43,0,0,0,.18.31.71.71,0,0,0,.46.15,2.2,2.2,0,0,0,1.45-.93,2.82,2.82,0,0,0,.81-1.83.77.77,0,0,0-.13-.49A.37.37,0,0,0,424.2,100.8Z"/><path d="M427.33,103.1s.06-.12.11-.22a8,8,0,0,1,.54-1.07,5.75,5.75,0,0,1,.56-.74,4,4,0,0,1,.54-.55,1.93,1.93,0,0,1,.46-.25,1.07,1.07,0,0,1,.39-.07.84.84,0,0,1,.62.23.71.71,0,0,1,.24.53.41.41,0,0,1-.08.25.33.33,0,0,1-.26.11.44.44,0,0,1-.34-.16.47.47,0,0,0-.33-.16c-.31,0-.73.36-1.27,1.1a5.15,5.15,0,0,0-1,2.44.74.74,0,0,1-.17.45.48.48,0,0,1-.35.11c-.14,0-.24-.1-.31-.32a4.32,4.32,0,0,1-.1-1.08c0-.14,0-.44,0-.91a10.71,10.71,0,0,1,.1-1.34s0-.18,0-.39a2.49,2.49,0,0,1,.07-.47.62.62,0,0,1,.19-.25.53.53,0,0,1,.31-.11.34.34,0,0,1,.25.1.4.4,0,0,1,.08.23,1.91,1.91,0,0,1-.09.48,3.19,3.19,0,0,0-.12.48,1.81,1.81,0,0,1-.05.31,8.28,8.28,0,0,0-.09,1v.28Z"/><path d="M432,103.87a3.63,3.63,0,0,0,.09.76.32.32,0,0,1,0,.13s-.05.12-.14.2a.5.5,0,0,1-.31.13c-.28,0-.43-.26-.43-.79a14.72,14.72,0,0,1,.34-2.55,7.52,7.52,0,0,0,.11-.75,1.14,1.14,0,0,1,.1-.48.32.32,0,0,1,.29-.19.48.48,0,0,1,.35.11.29.29,0,0,1,.13.23,1.34,1.34,0,0,1-.06.35,15.69,15.69,0,0,0-.41,1.66A8.15,8.15,0,0,0,432,103.87Zm.58-4.91c-.06,0-.11-.06-.14-.19a1.21,1.21,0,0,0-.05-.14,1.33,1.33,0,0,1-.12-.5.5.5,0,0,1,.21-.35.65.65,0,0,1,.46-.19.63.63,0,0,1,.29.1c.11.07.16.13.16.19a2.18,2.18,0,0,1-.11.5.73.73,0,0,1-.34.46A.92.92,0,0,1,432.53,99Z"/><path d="M435.93,103.84c0-.19-.24-.4-.71-.65a6.65,6.65,0,0,1-1.2-.73.81.81,0,0,1-.32-.61,1.67,1.67,0,0,1,.88-1.45,2.79,2.79,0,0,1,1.43-.58.89.89,0,0,1,.52.12.55.55,0,0,1,.16.43.28.28,0,0,1-.12.23.33.33,0,0,1-.18.1.44.44,0,0,1-.19-.07l-.19-.06a3,3,0,0,0-.89.32c-.45.22-.67.46-.67.73a.57.57,0,0,0,.24.44,3.91,3.91,0,0,0,.85.5,3.07,3.07,0,0,1,.79.5.83.83,0,0,1,.3.64q0,.67-.93,1a4.75,4.75,0,0,1-1.77.38c-.47,0-.71-.16-.71-.48a.26.26,0,0,1,.16-.25.76.76,0,0,1,.32-.08,1.32,1.32,0,0,1,.25.05,1.12,1.12,0,0,0,.24,0,3.73,3.73,0,0,0,1.05-.16A1.15,1.15,0,0,0,435.93,103.84Z"/><path d="M439.32,100.42l.85-.09a6,6,0,0,1,.66,0,.93.93,0,0,1,.43.06.26.26,0,0,1,.08.21c0,.24-.16.37-.49.39s-.82.06-1.18.11a1.93,1.93,0,0,0-.57.12,7.32,7.32,0,0,0-.27,1,7.71,7.71,0,0,0-.22,1.3,1.21,1.21,0,0,0,.12.65.5.5,0,0,0,.39.16,1.94,1.94,0,0,0,1.05-.57.67.67,0,0,1,.4-.23c.12,0,.18.06.18.2s-.2.48-.6.82a2,2,0,0,1-1.25.5c-.71,0-1.06-.42-1.06-1.25a6.69,6.69,0,0,1,.22-1.4,8.46,8.46,0,0,0,.21-1.14s0-.06-.1-.06l-.46,0c-.38,0-.56-.15-.56-.45a.23.23,0,0,1,.26-.26h.9a.18.18,0,0,0,.16-.08,2,2,0,0,0,.21-.56c.09-.32.17-.63.24-.94s.21-.46.42-.46a.35.35,0,0,1,.29.13.42.42,0,0,1,.11.24s-.06.25-.16.63Z"/><path d="M442.59,103.87a3.63,3.63,0,0,0,.09.76.32.32,0,0,1,0,.13s-.05.12-.14.2a.5.5,0,0,1-.31.13c-.29,0-.43-.26-.43-.79a14.72,14.72,0,0,1,.34-2.55,7.52,7.52,0,0,0,.11-.75,1,1,0,0,1,.1-.48.32.32,0,0,1,.29-.19.49.49,0,0,1,.35.11.29.29,0,0,1,.13.23,1.34,1.34,0,0,1-.06.35,15.69,15.69,0,0,0-.41,1.66A8.15,8.15,0,0,0,442.59,103.87Zm.58-4.91c-.06,0-.11-.06-.14-.19s0-.09,0-.14a1.33,1.33,0,0,1-.12-.5.5.5,0,0,1,.21-.35.65.65,0,0,1,.46-.19.63.63,0,0,1,.29.1c.1.07.16.13.16.19a2.18,2.18,0,0,1-.11.5.73.73,0,0,1-.34.46A.92.92,0,0,1,443.17,99Z"/><path d="M447.35,101.47a.72.72,0,0,0-.5.3,7.65,7.65,0,0,0-.83,1.34,8.75,8.75,0,0,1-.94,1.59.58.58,0,0,1-.35.19c-.35,0-.52-.16-.52-.5a3.33,3.33,0,0,1,.07-.6,15.58,15.58,0,0,0,.24-2.79.71.71,0,0,1,.14-.38c.1-.13.19-.2.27-.2a.38.38,0,0,1,.33.14,1.14,1.14,0,0,1,.1.57,12.53,12.53,0,0,1-.27,1.83,3.92,3.92,0,0,0-.09.58s0,.07,0,.07a5.11,5.11,0,0,0,.61-1,7.1,7.1,0,0,1,1-1.51,1.24,1.24,0,0,1,.91-.43.76.76,0,0,1,.65.36,3.31,3.31,0,0,1,.36,1.31,7.08,7.08,0,0,0,.22,1.35c.07.18.17.27.31.27a.78.78,0,0,0,.35-.1l0,0c.13,0,.19.08.19.22a.62.62,0,0,1-.26.42,1,1,0,0,1-.62.21.67.67,0,0,1-.58-.29,4.08,4.08,0,0,1-.32-1.59C447.78,101.9,447.61,101.47,447.35,101.47Z"/><path d="M451.6,105.07a1.23,1.23,0,0,1-1-.46,1.67,1.67,0,0,1-.39-1.13,3.87,3.87,0,0,1,.76-2.23,2.19,2.19,0,0,1,1.83-1.1,1.39,1.39,0,0,1,1.14.54,2,2,0,0,1,.44,1.29,3,3,0,0,1-.91,2.11A2.59,2.59,0,0,1,451.6,105.07Zm-.61-1.7a1.3,1.3,0,0,0,.19.72.57.57,0,0,0,.49.28,1.83,1.83,0,0,0,1.32-.71,2.33,2.33,0,0,0,.66-1.6,1.5,1.5,0,0,0-.25-.88.82.82,0,0,0-.68-.33,1.46,1.46,0,0,0-1.22.86A3.28,3.28,0,0,0,451,103.37Z"/><path d="M424,113.83a5.45,5.45,0,0,1-1.25,1.46,2,2,0,0,1-1.21.51.82.82,0,0,1-.68-.33,1.45,1.45,0,0,1-.24-.87,3.77,3.77,0,0,1,.9-2.28,2.51,2.51,0,0,1,1.95-1.17,1.2,1.2,0,0,1,.85.39l.61-2.87a.6.6,0,0,1,.25-.4.56.56,0,0,1,.27-.1c.21,0,.31.18.31.54a5,5,0,0,1-.2.73,21.06,21.06,0,0,0-.61,2.37,12.07,12.07,0,0,0-.29,2.26c0,.59.13.88.39.88a1,1,0,0,0,.51-.16.3.3,0,0,1,.2-.08c.1,0,.14.06.14.18s-.13.33-.39.52a1.31,1.31,0,0,1-.81.3c-.48,0-.72-.47-.72-1.4C423.93,114.15,423.94,114,424,113.83Zm-.57-2.06a1.88,1.88,0,0,0-1.42,1,3.11,3.11,0,0,0-.69,1.78c0,.37.12.55.36.55a1.48,1.48,0,0,0,.83-.36,4.23,4.23,0,0,0,1-1.15,2.53,2.53,0,0,0,.52-1.18.6.6,0,0,0-.18-.4A.54.54,0,0,0,423.38,111.77Z"/><path d="M427.64,113.9a1.64,1.64,0,0,0,.1-.22,9.29,9.29,0,0,1,.55-1.07,6.76,6.76,0,0,1,.55-.74,4,4,0,0,1,.55-.55,2.1,2.1,0,0,1,.45-.25,1.15,1.15,0,0,1,.39-.07.85.85,0,0,1,.63.23.71.71,0,0,1,.24.53.38.38,0,0,1-.09.25.3.3,0,0,1-.26.11.44.44,0,0,1-.33-.16.48.48,0,0,0-.34-.17q-.45,0-1.26,1.11a5.27,5.27,0,0,0-1,2.44.68.68,0,0,1-.16.45.48.48,0,0,1-.35.11c-.14,0-.25-.1-.31-.32a3.88,3.88,0,0,1-.1-1.08c0-.14,0-.44,0-.91a12.64,12.64,0,0,1,.11-1.34s0-.18,0-.39a2.3,2.3,0,0,1,.08-.47.54.54,0,0,1,.19-.25.51.51,0,0,1,.31-.11.27.27,0,0,1,.24.1.34.34,0,0,1,.08.23,1.8,1.8,0,0,1-.08.48,3.19,3.19,0,0,0-.12.48c0,.1,0,.2,0,.31a8.28,8.28,0,0,0-.09,1v.28Z"/><path d="M432.62,115.87a1.24,1.24,0,0,1-1-.46,1.67,1.67,0,0,1-.39-1.13,3.94,3.94,0,0,1,.76-2.23,2.19,2.19,0,0,1,1.83-1.1,1.39,1.39,0,0,1,1.14.54,2,2,0,0,1,.44,1.28,3,3,0,0,1-.91,2.12A2.57,2.57,0,0,1,432.62,115.87Zm-.62-1.7a1.3,1.3,0,0,0,.19.72.57.57,0,0,0,.5.28,1.83,1.83,0,0,0,1.31-.71,2.33,2.33,0,0,0,.66-1.6,1.43,1.43,0,0,0-.25-.88.82.82,0,0,0-.68-.33,1.46,1.46,0,0,0-1.22.86A3.28,3.28,0,0,0,432,114.17Z"/><path d="M439.41,112.27a.72.72,0,0,0-.49.3,7.65,7.65,0,0,0-.83,1.34,9.44,9.44,0,0,1-.94,1.59.57.57,0,0,1-.36.19.44.44,0,0,1-.51-.5,3.33,3.33,0,0,1,.07-.6,15.62,15.62,0,0,0,.24-2.8.71.71,0,0,1,.14-.37c.1-.13.19-.2.27-.2a.39.39,0,0,1,.33.14,1.17,1.17,0,0,1,.09.57,13.25,13.25,0,0,1-.26,1.82,4.35,4.35,0,0,0-.09.58s0,.08,0,.08a5.67,5.67,0,0,0,.61-1.06,6.49,6.49,0,0,1,1-1.5,1.24,1.24,0,0,1,.91-.43.74.74,0,0,1,.64.36,3.13,3.13,0,0,1,.37,1.31,7.25,7.25,0,0,0,.22,1.35c.06.18.17.27.31.27a.82.82,0,0,0,.35-.1l0,0c.12,0,.19.08.19.22a.62.62,0,0,1-.26.42,1,1,0,0,1-.63.21.65.65,0,0,1-.57-.29,4.21,4.21,0,0,1-.33-1.59C439.85,112.7,439.68,112.27,439.41,112.27Z"/><path d="M446.15,114.16c0,.3-.26.66-.79,1.08a2.62,2.62,0,0,1-1.64.63,1.42,1.42,0,0,1-1.09-.41,1.65,1.65,0,0,1-.39-1.17,4,4,0,0,1,.85-2.39,2.36,2.36,0,0,1,1.86-1.13.73.73,0,0,1,.54.21.77.77,0,0,1,.2.52,1.81,1.81,0,0,1-.66,1.3,8.07,8.07,0,0,1-1.78,1.21.36.36,0,0,0-.22.31.84.84,0,0,0,.21.59.85.85,0,0,0,.62.22,2.75,2.75,0,0,0,1.93-1c.1-.1.17-.14.22-.14S446.15,114,446.15,114.16Zm-3-.69c1.24-.73,1.86-1.33,1.86-1.78,0-.17-.08-.26-.24-.26a1.37,1.37,0,0,0-.91.59A3.35,3.35,0,0,0,443.1,113.47Z"/></svg>