<svg xmlns="http://www.w3.org/2000/svg" viewBox="0 0 751 266.87"><defs><style>.cls-1{fill:none;stroke:#afafaf;stroke-miterlimit:10;stroke-width:6px;}.cls-2{fill:#afafaf;}.cls-3{fill:#3fa0ec;}.cls-4{font-size:18px;}.cls-4,.cls-5{fill:#fff;font-family:ArialMT, Arial;}.cls-5{font-size:18.04px;}</style></defs><title>OJ103514635</title><g id="Shapes"><line class="cls-1" x1="102" y1="152" x2="126.24" y2="152"/><polygon class="cls-2" points="124.05 159.48 137 152 124.05 144.52 124.05 159.48"/><line class="cls-1" x1="105" y1="56.86" x2="126.24" y2="56.86"/><polygon class="cls-2" points="124.05 64.34 137 56.86 124.05 49.38 124.05 64.34"/><line class="cls-1" x1="596" y1="104.87" x2="626.23" y2="104.88"/><polygon class="cls-2" points="624.04 112.35 637 104.88 624.05 97.39 624.04 112.35"/><line class="cls-1" x1="448" y1="169.82" x2="626.24" y2="169.22"/><polygon class="cls-2" points="624.07 176.71 637 169.19 624.02 161.75 624.07 176.71"/><line class="cls-1" x1="453" y1="134.18" x2="477.22" y2="134.18"/><polygon class="cls-2" points="475.03 141.66 487.99 134.18 475.03 126.7 475.03 141.66"/><line class="cls-1" x1="448" y1="39.05" x2="626.24" y2="39.64"/><polygon class="cls-2" points="624.02 47.11 637 39.68 624.07 32.15 624.02 47.11"/><line class="cls-1" x1="453" y1="74.68" x2="477.22" y2="74.68"/><polygon class="cls-2" points="475.03 82.16 487.99 74.68 475.03 67.2 475.03 82.16"/><rect class="cls-3" x="136.5" y="118.64" width="188" height="67" rx="8" ry="8"/><rect class="cls-3" x="328.5" y="118.36" width="125" height="67" rx="8" ry="8"/><rect class="cls-3" x="328.5" y="23.36" width="125" height="67" rx="8" ry="8"/><rect class="cls-3" x="136.5" y="23.36" width="188" height="67" rx="8" ry="8"/><rect class="cls-3" x="637" width="114" height="209" rx="8" ry="8"/><rect class="cls-3" x="0.25" width="105" height="209" rx="8" ry="8"/><rect class="cls-3" y="217.87" width="751" height="49" rx="8" ry="8"/><rect class="cls-3" x="488.75" y="52.5" width="114" height="104" rx="8" ry="8"/></g><g id="txt"><text class="cls-4" transform="translate(314.43 246.32)">Orchestrazione</text><text class="cls-5" transform="translate(515 97.48)">Archivio <tspan x="-15.05" y="21.65">dati analitici</tspan></text><text class="cls-5" transform="translate(662.99 86.96)">Analisi e <tspan x="-5.02" y="21.65">creazione </tspan><tspan x="1" y="43.3">di report</tspan></text><text class="cls-4" transform="translate(338.88 49.81)">Elaborazione <tspan x="30.52" y="21.6">batch</tspan></text><text class="cls-4" transform="translate(338.88 145.12)">Elaborazione <tspan x="22.53" y="21.6">di flussi</tspan></text><text class="cls-4" transform="translate(142.81 145.5)">Inserimento messaggi <tspan x="31.01" y="21.6">in tempo reale</tspan></text><text class="cls-4" transform="translate(181.84 60.81)">Archivio dati</text><text class="cls-4" transform="translate(27.74 97.45)">Origini <tspan x="11.5" y="21.6">dati</tspan></text></g></svg>